<?xml version="1.0" encoding="UTF-8"?>
<!DOCTYPE svg PUBLIC "-//W3C//DTD SVG 1.0//EN" "http://www.w3.org/TR/2001/REC-SVG-20010904/DTD/svg10.dtd">
<!-- Creator: CorelDRAW 2018 (64 Bit) -->
<svg xmlns="http://www.w3.org/2000/svg" xml:space="preserve" width="102px" height="102px" version="1.0" style="shape-rendering:geometricPrecision; text-rendering:geometricPrecision; image-rendering:optimizeQuality; fill-rule:evenodd; clip-rule:evenodd"
viewBox="0 0 102 102"
 xmlns:xlink="http://www.w3.org/1999/xlink">
 <defs>
  <style type="text/css">
   <![CDATA[
    .fil3 {fill:none}
    .fil1 {fill:#FEFEFE}
    .fil4 {fill:#2A6EB4}
    .fil2 {fill:white}
    .fil0 {fill:url(#id3)}
   ]]>
  </style>
   <clipPath id="id0">
    <path d="M3.16 46.24l42.51 -42.11c2.84,-2.82 7.49,-2.82 10.34,0l42.51 42.11c2.84,2.82 2.84,7.43 0,10.25l-42.51 42.11c-2.85,2.81 -7.5,2.81 -10.34,0l-42.51 -42.11c-2.85,-2.82 -2.85,-7.43 0,-10.25z"/>
   </clipPath>
     <mask id="id1">
  <linearGradient id="id2" gradientUnits="userSpaceOnUse" x1="26.67" y1="82.3" x2="53.28" y2="41.24">
   <stop offset="0" style="stop-opacity:1; stop-color:white"/>
   <stop offset="1" style="stop-opacity:0; stop-color:white"/>
  </linearGradient>
      <rect style="fill:url(#id2)" x="21.02" y="-30.49" width="94.92" height="94.06"/>
     </mask>
  <linearGradient id="id3" gradientUnits="userSpaceOnUse" x1="45.61" y1="65.88" x2="59.29" y2="20.76">
   <stop offset="0" style="stop-opacity:1; stop-color:#2A6EB4"/>
   <stop offset="1" style="stop-opacity:1; stop-color:#45C7EF"/>
  </linearGradient>
 </defs>
 <g id="Capa_x0020_1">
  <metadata id="CorelCorpID_0Corel-Layer"/>
  <path class="fil0" d="M3.16 46.24l42.51 -42.11c2.84,-2.82 7.49,-2.82 10.34,0l42.51 42.11c2.84,2.82 2.84,7.43 0,10.25l-42.51 42.11c-2.85,2.81 -7.5,2.81 -10.34,0l-42.51 -42.11c-2.85,-2.82 -2.85,-7.43 0,-10.25z"/>
  <g style="clip-path:url(#id0)">
   <g id="_1945934174656">
    <path id="1" class="fil1" style="mask:url(#id1)" d="M68.48 -29.3c25.56,0 46.27,20.52 46.27,45.84 0,25.32 -20.71,45.84 -46.27,45.84 -25.56,0 -46.27,-20.52 -46.27,-45.84 0,-25.32 20.71,-45.84 46.27,-45.84z"/>
    <path class="fil2" d="M71.14 51.36l0 53.27 -41.73 0 0 -53.27 -2.78 0c-0.79,0 -1.44,-0.64 -1.44,-1.42l0 -4.72c0,-0.78 0.65,-1.42 1.44,-1.42l48.41 0c0.79,0 1.44,0.64 1.44,1.42l0 4.72c0,0.78 -0.65,1.42 -1.44,1.42l-3.9 0z"/>
   </g>
  </g>
  <path class="fil3" d="M3.16 46.24l42.51 -42.11c2.84,-2.82 7.49,-2.82 10.34,0l42.51 42.11c2.84,2.82 2.84,7.43 0,10.25l-42.51 42.11c-2.85,2.81 -7.5,2.81 -10.34,0l-42.51 -42.11c-2.85,-2.82 -2.85,-7.43 0,-10.25z"/>
  <rect class="fil4" x="36.42" y="55.76" width="14.42" height="3.41" rx="1.33" ry="1.15"/>
  <rect class="fil4" x="36.42" y="64.82" width="14.42" height="3.41" rx="1.33" ry="1.15"/>
  <rect class="fil4" x="36.42" y="73.88" width="14.42" height="3.41" rx="1.33" ry="1.15"/>
  <rect class="fil4" x="36.42" y="82.95" width="14.42" height="3.41" rx="1.33" ry="1.15"/>
 </g>
</svg>
