<?xml version="1.0" encoding="UTF-8"?>
<!DOCTYPE svg PUBLIC "-//W3C//DTD SVG 1.0//EN" "http://www.w3.org/TR/2001/REC-SVG-20010904/DTD/svg10.dtd">
<!-- Creator: CorelDRAW 2018 (64 Bit) -->
<svg xmlns="http://www.w3.org/2000/svg" xml:space="preserve" width="354px" height="236px" version="1.0" style="shape-rendering:geometricPrecision; text-rendering:geometricPrecision; image-rendering:optimizeQuality; fill-rule:evenodd; clip-rule:evenodd"
viewBox="0 0 354 236"
 xmlns:xlink="http://www.w3.org/1999/xlink">
 <defs>
  <style type="text/css">
   <![CDATA[
    .fil3 {fill:none}
    .fil6 {fill:none;fill-rule:nonzero}
    .fil1 {fill:#FEFEFE}
    .fil4 {fill:#2A6EB4}
    .fil2 {fill:white}
    .fil7 {fill:#2A6EB4;fill-rule:nonzero}
    .fil5 {fill:#323F70;fill-rule:nonzero}
    .fil0 {fill:url(#id17)}
   ]]>
  </style>
   <clipPath id="id0">
    <path d="M106.55 76.6l53.87 -51.13c3.6,-3.42 9.49,-3.41 13.1,0.01l53.85 51.11c3.6,3.42 3.6,9.02 0.01,12.43l-53.87 51.13c-3.6,3.42 -9.49,3.42 -13.1,0l-53.85 -51.12c-3.6,-3.42 -3.6,-9.01 -0.01,-12.43z"/>
   </clipPath>
     <mask id="id1">
  <linearGradient id="id2" gradientUnits="userSpaceOnUse" x1="137.35" y1="120.99" x2="169.06" y2="69.91">
   <stop offset="0" style="stop-opacity:1; stop-color:white"/>
   <stop offset="1" style="stop-opacity:0; stop-color:white"/>
  </linearGradient>
      <rect style="fill:url(#id2)" x="129.52" y="-16.28" width="119.6" height="113.64"/>
     </mask>
   <clipPath id="id3" style="clip-rule:nonzero">
    <path d="M15.05 151.48l0 0 6.7 0 0 31.77 -6.7 0 0 -31.77zm18.07 7.6l0 0 0 24.17 -6.7 0 0 -31.77 8.12 0 25.92 24.2 0 -24.2 6.69 0 0 31.77 -8.12 0 -25.91 -24.17zm75.82 14.38l0 0c0,1.79 -0.47,3.43 -1.4,4.92 -0.93,1.49 -2.17,2.67 -3.75,3.56 -1.56,0.88 -3.29,1.31 -5.18,1.31l-26.78 0 0 -31.77 25.11 0c1.78,0 3.42,0.42 4.91,1.25 1.47,0.84 2.66,1.96 3.53,3.37 0.87,1.41 1.3,2.96 1.3,4.66 0,1.86 -0.52,3.56 -1.58,5.09 1.18,0.9 2.12,2.01 2.81,3.33 0.68,1.31 1.03,2.74 1.03,4.28zm-30.42 -15.63l0 0 0 5.84 18.42 0c0.83,0 1.55,-0.29 2.16,-0.86 0.6,-0.56 0.89,-1.25 0.89,-2.05 0,-0.81 -0.29,-1.51 -0.89,-2.08 -0.61,-0.56 -1.33,-0.85 -2.16,-0.85l-18.42 0zm0 12.19l0 0 0 6.88 20.09 0c1,0 1.86,-0.33 2.57,-1 0.71,-0.68 1.06,-1.49 1.06,-2.44 0,-0.95 -0.35,-1.76 -1.06,-2.43 -0.71,-0.67 -1.57,-1.01 -2.57,-1.01l-20.09 0zm35.09 -18.54l0 0 6.69 0 0 31.77 -6.69 0 0 -31.77zm11.37 19.07l0 0 0 -6.35c0,-3.4 1.31,-6.4 3.93,-8.99 2.73,-2.48 5.88,-3.73 9.45,-3.73l12.28 0c3.57,0 6.73,1.25 9.47,3.73 2.61,2.59 3.91,5.59 3.91,8.99l0 6.35c0,3.39 -1.3,6.38 -3.91,8.98 -2.74,2.48 -5.9,3.72 -9.47,3.72l-12.28 0c-3.57,0 -6.72,-1.24 -9.45,-3.72 -2.62,-2.6 -3.93,-5.59 -3.93,-8.98zm6.69 -6.35l0 0 0 6.35c0,1.75 0.65,3.25 1.96,4.49 1.31,1.24 2.89,1.86 4.73,1.86l12.28 0c1.84,0 3.42,-0.62 4.73,-1.86 1.31,-1.24 1.96,-2.74 1.96,-4.49l0 -6.35c0,-1.76 -0.65,-3.26 -1.96,-4.5 -1.31,-1.24 -2.89,-1.87 -4.73,-1.87l-12.28 0c-1.84,0 -3.42,0.63 -4.73,1.87 -1.31,1.24 -1.96,2.74 -1.96,4.5zm40.47 3.93l0 0c-1.08,-0.87 -1.92,-1.93 -2.53,-3.19 -0.61,-1.25 -0.91,-2.56 -0.91,-3.94 0,-1.74 0.46,-3.33 1.36,-4.78 0.9,-1.44 2.11,-2.59 3.63,-3.45 1.53,-0.86 3.2,-1.29 5.05,-1.29l27.88 0 0 6.35 -27.88 0c-0.92,0 -1.71,0.32 -2.37,0.94 -0.65,0.62 -0.98,1.36 -0.98,2.23 0,0.88 0.36,1.64 1.08,2.29 0.56,0.43 1.28,0.69 2.15,0.79 0.88,0.1 1.85,0.14 2.92,0.14 0.19,0 0.37,0 0.57,0l0.02 0c2.62,0.05 5.24,0.06 7.86,0.03l0.77 0c1.28,-0.02 2.55,-0.04 3.81,-0.07 0.44,0 0.89,-0.01 1.33,-0.02 1.05,-0.03 2.15,0.01 3.32,0.13 1.16,0.12 2.31,0.44 3.47,0.96 2.88,1.41 4.66,3.63 5.33,6.68 0.28,1.43 0.24,2.85 -0.14,4.24 -0.41,1.48 -1.14,2.79 -2.22,3.93 -0.97,1.01 -2.09,1.78 -3.37,2.34 -1.28,0.54 -2.62,0.81 -4.02,0.81l-28.44 0 0 -6.35 28.44 0c0.9,0 1.71,-0.34 2.41,-1.04 0.72,-0.77 0.97,-1.68 0.77,-2.73 -0.22,-1.01 -0.79,-1.73 -1.71,-2.18 -0.99,-0.38 -2.24,-0.53 -3.72,-0.44 -0.43,0.01 -0.88,0.02 -1.31,0.02 -1.27,0.03 -2.58,0.05 -3.9,0.07l-0.77 0c-2.67,0.04 -5.35,0.04 -8.05,-0.03 -0.17,0 -0.35,0 -0.51,0 0,0 0,0 0,0 -1.46,0.04 -3,-0.08 -4.63,-0.34 -1.63,-0.25 -3.2,-0.96 -4.71,-2.1z"/>
   </clipPath>
     <mask id="id4">
  <linearGradient id="id5" gradientUnits="userSpaceOnUse" x1="-3.21" y1="195.86" x2="32.77" y2="137.91">
   <stop offset="0" style="stop-opacity:1; stop-color:white"/>
   <stop offset="1" style="stop-opacity:0; stop-color:white"/>
  </linearGradient>
      <rect style="fill:url(#id5)" x="-11.93" y="40.28" width="135.38" height="128.63"/>
     </mask>
     <mask id="id6">
  <linearGradient id="id7" gradientUnits="userSpaceOnUse" x1="269.43" y1="119.59" x2="185.33" y2="191.96">
   <stop offset="0" style="stop-opacity:1; stop-color:white"/>
   <stop offset="0.258824" style="stop-opacity:0.501961; stop-color:white"/>
   <stop offset="1" style="stop-opacity:0; stop-color:white"/>
  </linearGradient>
      <rect style="fill:url(#id7)" x="94.19" y="159.69" width="135.38" height="128.62"/>
     </mask>
     <mask id="id8">
  <linearGradient id="id9" gradientUnits="userSpaceOnUse" x1="250.36" y1="195.86" x2="286.34" y2="137.91">
   <stop offset="0" style="stop-opacity:1; stop-color:white"/>
   <stop offset="1" style="stop-opacity:0; stop-color:white"/>
  </linearGradient>
      <rect style="fill:url(#id9)" x="241.64" y="40.28" width="135.38" height="128.63"/>
     </mask>
    <clipPath id="id10" style="clip-rule:nonzero">
     <path d="M213.12 151.48l0 0 6.69 0 0 25.42 29.01 0 0 6.35 -35.7 0 0 -31.77zm50.97 26.49l0 0 -2.99 5.28 -7.6 0 18.01 -31.77 7.02 0 18.01 31.77 -7.61 0 -2.99 -5.28 -21.85 0zm10.92 -19.25l0 0 -7.32 12.88 14.65 0 -7.33 -12.88zm63.31 14.74l0 0c0,1.79 -0.47,3.43 -1.39,4.92 -0.93,1.49 -2.18,2.67 -3.75,3.56 -1.56,0.88 -3.29,1.31 -5.18,1.31l-26.78 0 0 -31.77 25.1 0c1.79,0 3.43,0.42 4.91,1.25 1.48,0.84 2.66,1.96 3.53,3.37 0.88,1.41 1.31,2.96 1.31,4.66 0,1.86 -0.53,3.56 -1.59,5.09 1.19,0.9 2.13,2.01 2.81,3.33 0.69,1.31 1.03,2.74 1.03,4.28zm-30.41 -15.63l0 0 0 5.84 18.41 0c0.84,0 1.56,-0.29 2.17,-0.86 0.6,-0.56 0.89,-1.25 0.89,-2.05 0,-0.81 -0.29,-1.51 -0.89,-2.08 -0.61,-0.56 -1.33,-0.85 -2.17,-0.85l-18.41 0zm0 12.19l0 0 0 6.88 20.09 0c1,0 1.85,-0.33 2.56,-1 0.71,-0.68 1.07,-1.49 1.07,-2.44 0,-0.95 -0.36,-1.76 -1.07,-2.43 -0.71,-0.67 -1.56,-1.01 -2.56,-1.01l-20.09 0z"/>
    </clipPath>
      <mask id="id11">
  <linearGradient id="id12" gradientUnits="userSpaceOnUse" x1="-3.21" y1="195.86" x2="32.77" y2="137.91">
   <stop offset="0" style="stop-opacity:1; stop-color:white"/>
   <stop offset="1" style="stop-opacity:0; stop-color:white"/>
  </linearGradient>
       <rect style="fill:url(#id12)" x="-11.93" y="40.28" width="135.38" height="128.63"/>
      </mask>
      <mask id="id13">
  <linearGradient id="id14" gradientUnits="userSpaceOnUse" x1="269.43" y1="119.59" x2="185.33" y2="191.96">
   <stop offset="0" style="stop-opacity:1; stop-color:white"/>
   <stop offset="0.258824" style="stop-opacity:0.501961; stop-color:white"/>
   <stop offset="1" style="stop-opacity:0; stop-color:white"/>
  </linearGradient>
       <rect style="fill:url(#id14)" x="94.19" y="159.69" width="135.38" height="128.62"/>
      </mask>
      <mask id="id15">
  <linearGradient id="id16" gradientUnits="userSpaceOnUse" x1="250.36" y1="195.86" x2="286.34" y2="137.91">
   <stop offset="0" style="stop-opacity:1; stop-color:white"/>
   <stop offset="1" style="stop-opacity:0; stop-color:white"/>
  </linearGradient>
       <rect style="fill:url(#id16)" x="241.64" y="40.28" width="135.38" height="128.63"/>
      </mask>
  <linearGradient id="id17" gradientUnits="userSpaceOnUse" x1="160.99" y1="100.63" x2="177.02" y2="45.47">
   <stop offset="0" style="stop-opacity:1; stop-color:#2A6EB4"/>
   <stop offset="1" style="stop-opacity:1; stop-color:#45C7EF"/>
  </linearGradient>
 </defs>
 <g id="Capa_x0020_1">
  <metadata id="CorelCorpID_0Corel-Layer"/>
  <path class="fil0" d="M106.55 76.6l53.87 -51.13c3.6,-3.42 9.49,-3.41 13.1,0.01l53.85 51.11c3.6,3.42 3.6,9.02 0.01,12.43l-53.87 51.13c-3.6,3.42 -9.49,3.42 -13.1,0l-53.85 -51.12c-3.6,-3.42 -3.6,-9.01 -0.01,-12.43z"/>
  <g style="clip-path:url(#id0)">
   <g id="_3077469687808">
    <path id="1" class="fil1" style="mask:url(#id1)" d="M189.31 -15.1c32.38,0 58.63,24.91 58.63,55.64 0,30.73 -26.25,55.64 -58.63,55.64 -32.37,0 -58.61,-24.91 -58.61,-55.64 0,-30.73 26.24,-55.64 58.61,-55.64z"/>
    <path class="fil2" d="M192.68 82.81l0 64.67 -52.86 0 0 -64.67 -3.52 0c-1,0 -1.82,-0.78 -1.82,-1.73l0 -5.72c0,-0.95 0.82,-1.73 1.82,-1.73l61.33 0c1,0 1.82,0.78 1.82,1.73l0 5.72c0,0.95 -0.82,1.73 -1.82,1.73l-4.95 0z"/>
   </g>
  </g>
  <path class="fil3" d="M106.55 76.6l53.87 -51.13c3.6,-3.42 9.49,-3.41 13.1,0.01l53.85 51.11c3.6,3.42 3.6,9.02 0.01,12.43l-53.87 51.13c-3.6,3.42 -9.49,3.42 -13.1,0l-53.85 -51.12c-3.6,-3.42 -3.6,-9.01 -0.01,-12.43z"/>
  <rect class="fil4" x="148.7" y="88.15" width="18.27" height="4.14" rx="1.68" ry="1.39"/>
  <rect class="fil4" x="148.7" y="99.15" width="18.27" height="4.14" rx="1.68" ry="1.39"/>
  <rect class="fil4" x="148.7" y="110.15" width="18.27" height="4.14" rx="1.68" ry="1.39"/>
  <rect class="fil4" x="148.7" y="121.15" width="18.27" height="4.14" rx="1.68" ry="1.39"/>
  <path class="fil5" d="M23.11 207.67l9.85 0 0 -2.03 -7.27 0 0 -10.87 -2.58 0 0 12.9zm25.87 0l2.7 0 -6.28 -12.9 -2.54 0 -6.25 12.9 2.66 0 1.37 -2.99 6.95 0 1.39 2.99zm-7.47 -4.87l2.6 -5.64 2.62 5.64 -5.22 0zm25.26 -1.84c1.07,-0.54 1.78,-1.51 1.78,-2.84 0,-2.04 -1.78,-3.35 -5.12,-3.35l-6.51 0 0 12.9 6.91 0c3.57,0 5.44,-1.29 5.44,-3.51 0,-1.67 -1.01,-2.76 -2.5,-3.2zm-3.62 -4.31c1.79,0 2.8,0.59 2.8,1.78 0,1.18 -1.01,1.77 -2.8,1.77l-3.65 0 0 -3.55 3.65 0zm0.52 9.14l-4.17 0 0 -3.73 4.17 0c1.95,0 3,0.58 3,1.87 0,1.28 -1.05,1.86 -3,1.86zm18.32 2.06c4.31,0 7.49,-2.8 7.49,-6.63 0,-3.84 -3.18,-6.64 -7.49,-6.64 -4.3,0 -7.48,2.82 -7.48,6.64 0,3.81 3.18,6.63 7.48,6.63zm0 -2.1c-2.79,0 -4.88,-1.9 -4.88,-4.53 0,-2.64 2.09,-4.54 4.88,-4.54 2.8,0 4.89,1.9 4.89,4.54 0,2.63 -2.09,4.53 -4.89,4.53zm25.57 1.92l-3.19 -4.24c1.89,-0.68 2.96,-2.12 2.96,-4.07 0,-2.86 -2.27,-4.59 -5.92,-4.59l-5.72 0 0 12.9 2.59 0 0 -3.76 3.13 0c0.18,0 0.36,0 0.54,-0.02l2.84 3.78 2.77 0zm-2.83 -8.31c0,1.62 -1.17,2.57 -3.44,2.57l-3.01 0 0 -5.14 3.01 0c2.27,0 3.44,0.94 3.44,2.57zm19.35 8.31l2.7 0 -6.27 -12.9 -2.54 0 -6.25 12.9 2.66 0 1.37 -2.99 6.94 0 1.39 2.99zm-7.46 -4.87l2.6 -5.64 2.62 5.64 -5.22 0zm17.53 4.87l2.58 0 0 -10.88 4.61 0 0 -2.02 -11.79 0 0 2.02 4.6 0 0 10.88zm18.9 0.18c4.31,0 7.48,-2.8 7.48,-6.63 0,-3.84 -3.17,-6.64 -7.48,-6.64 -4.31,0 -7.48,2.82 -7.48,6.64 0,3.81 3.17,6.63 7.48,6.63zm0 -2.1c-2.8,0 -4.88,-1.9 -4.88,-4.53 0,-2.64 2.08,-4.54 4.88,-4.54 2.8,0 4.88,1.9 4.88,4.54 0,2.63 -2.08,4.53 -4.88,4.53zm25.57 1.92l-3.19 -4.24c1.88,-0.68 2.95,-2.12 2.95,-4.07 0,-2.86 -2.26,-4.59 -5.91,-4.59l-5.72 0 0 12.9 2.58 0 0 -3.76 3.14 0c0.18,0 0.36,0 0.53,-0.02l2.84 3.78 2.78 0zm-2.84 -8.31c0,1.62 -1.17,2.57 -3.43,2.57l-3.02 0 0 -5.14 3.02 0c2.26,0 3.43,0.94 3.43,2.57zm8.96 8.31l2.58 0 0 -12.9 -2.58 0 0 12.9zm16.3 0.18c4.31,0 7.48,-2.8 7.48,-6.63 0,-3.84 -3.17,-6.64 -7.48,-6.64 -4.31,0 -7.48,2.82 -7.48,6.64 0,3.81 3.17,6.63 7.48,6.63zm0 -2.1c-2.8,0 -4.88,-1.9 -4.88,-4.53 0,-2.64 2.08,-4.54 4.88,-4.54 2.8,0 4.88,1.9 4.88,4.54 0,2.63 -2.08,4.53 -4.88,4.53zm31.09 2.1c2.28,0 4.23,-0.76 5.52,-2.16l-1.67 -1.47c-1.01,1.03 -2.26,1.53 -3.71,1.53 -2.88,0 -4.97,-1.88 -4.97,-4.53 0,-2.66 2.09,-4.54 4.97,-4.54 1.45,0 2.7,0.5 3.71,1.52l1.67 -1.46c-1.29,-1.4 -3.24,-2.16 -5.5,-2.16 -4.27,0 -7.44,2.79 -7.44,6.64 0,3.85 3.17,6.63 7.42,6.63zm11.47 -0.18l9.85 0 0 -2.03 -7.26 0 0 -10.87 -2.59 0 0 12.9zm15 -13.95l2.14 0 3.45 -2.53 -2.92 0 -2.67 2.53zm0.37 13.95l2.58 0 0 -12.9 -2.58 0 0 12.9zm19.6 -12.9l0 8.73 -7.66 -8.73 -2.13 0 0 12.9 2.56 0 0 -8.74 7.67 8.74 2.12 0 0 -12.9 -2.56 0zm9.77 12.9l2.58 0 0 -12.9 -2.58 0 0 12.9zm16.24 0.18c2.28,0 4.23,-0.76 5.52,-2.16l-1.67 -1.47c-1.01,1.03 -2.26,1.53 -3.71,1.53 -2.88,0 -4.96,-1.88 -4.96,-4.53 0,-2.66 2.08,-4.54 4.96,-4.54 1.45,0 2.7,0.5 3.71,1.52l1.67 -1.46c-1.29,-1.4 -3.24,-2.16 -5.5,-2.16 -4.27,0 -7.44,2.79 -7.44,6.64 0,3.85 3.17,6.63 7.42,6.63zm17.67 0c4.31,0 7.48,-2.8 7.48,-6.63 0,-3.84 -3.17,-6.64 -7.48,-6.64 -4.31,0 -7.48,2.82 -7.48,6.64 0,3.81 3.17,6.63 7.48,6.63zm0 -2.1c-2.8,0 -4.89,-1.9 -4.89,-4.53 0,-2.64 2.09,-4.54 4.89,-4.54 2.8,0 4.88,1.9 4.88,4.54 0,2.63 -2.08,4.53 -4.88,4.53z"/>
  <path class="fil5" d="M15.05 151.48l0 0 6.7 0 0 31.77 -6.7 0 0 -31.77zm18.07 7.6l0 0 0 24.17 -6.7 0 0 -31.77 8.12 0 25.92 24.2 0 -24.2 6.69 0 0 31.77 -8.12 0 -25.91 -24.17zm75.82 14.38l0 0c0,1.79 -0.47,3.43 -1.4,4.92 -0.93,1.49 -2.17,2.67 -3.75,3.56 -1.56,0.88 -3.29,1.31 -5.18,1.31l-26.78 0 0 -31.77 25.11 0c1.78,0 3.42,0.42 4.91,1.25 1.47,0.84 2.66,1.96 3.53,3.37 0.87,1.41 1.3,2.96 1.3,4.66 0,1.86 -0.52,3.56 -1.58,5.09 1.18,0.9 2.12,2.01 2.81,3.33 0.68,1.31 1.03,2.74 1.03,4.28zm-30.42 -15.63l0 0 0 5.84 18.42 0c0.83,0 1.55,-0.29 2.16,-0.86 0.6,-0.56 0.89,-1.25 0.89,-2.05 0,-0.81 -0.29,-1.51 -0.89,-2.08 -0.61,-0.56 -1.33,-0.85 -2.16,-0.85l-18.42 0zm0 12.19l0 0 0 6.88 20.09 0c1,0 1.86,-0.33 2.57,-1 0.71,-0.68 1.06,-1.49 1.06,-2.44 0,-0.95 -0.35,-1.76 -1.06,-2.43 -0.71,-0.67 -1.57,-1.01 -2.57,-1.01l-20.09 0zm35.09 -18.54l0 0 6.69 0 0 31.77 -6.69 0 0 -31.77zm11.37 19.07l0 0 0 -6.35c0,-3.4 1.31,-6.4 3.93,-8.99 2.73,-2.48 5.88,-3.73 9.45,-3.73l12.28 0c3.57,0 6.73,1.25 9.47,3.73 2.61,2.59 3.91,5.59 3.91,8.99l0 6.35c0,3.39 -1.3,6.38 -3.91,8.98 -2.74,2.48 -5.9,3.72 -9.47,3.72l-12.28 0c-3.57,0 -6.72,-1.24 -9.45,-3.72 -2.62,-2.6 -3.93,-5.59 -3.93,-8.98zm6.69 -6.35l0 0 0 6.35c0,1.75 0.65,3.25 1.96,4.49 1.31,1.24 2.89,1.86 4.73,1.86l12.28 0c1.84,0 3.42,-0.62 4.73,-1.86 1.31,-1.24 1.96,-2.74 1.96,-4.49l0 -6.35c0,-1.76 -0.65,-3.26 -1.96,-4.5 -1.31,-1.24 -2.89,-1.87 -4.73,-1.87l-12.28 0c-1.84,0 -3.42,0.63 -4.73,1.87 -1.31,1.24 -1.96,2.74 -1.96,4.5zm40.47 3.93l0 0c-1.08,-0.87 -1.92,-1.93 -2.53,-3.19 -0.61,-1.25 -0.91,-2.56 -0.91,-3.94 0,-1.74 0.46,-3.33 1.36,-4.78 0.9,-1.44 2.11,-2.59 3.63,-3.45 1.53,-0.86 3.2,-1.29 5.05,-1.29l27.88 0 0 6.35 -27.88 0c-0.92,0 -1.71,0.32 -2.37,0.94 -0.65,0.62 -0.98,1.36 -0.98,2.23 0,0.88 0.36,1.64 1.08,2.29 0.56,0.43 1.28,0.69 2.15,0.79 0.88,0.1 1.85,0.14 2.92,0.14 0.19,0 0.37,0 0.57,0l0.02 0c2.62,0.05 5.24,0.06 7.86,0.03l0.77 0c1.28,-0.02 2.55,-0.04 3.81,-0.07 0.44,0 0.89,-0.01 1.33,-0.02 1.05,-0.03 2.15,0.01 3.32,0.13 1.16,0.12 2.31,0.44 3.47,0.96 2.88,1.41 4.66,3.63 5.33,6.68 0.28,1.43 0.24,2.85 -0.14,4.24 -0.41,1.48 -1.14,2.79 -2.22,3.93 -0.97,1.01 -2.09,1.78 -3.37,2.34 -1.28,0.54 -2.62,0.81 -4.02,0.81l-28.44 0 0 -6.35 28.44 0c0.9,0 1.71,-0.34 2.41,-1.04 0.72,-0.77 0.97,-1.68 0.77,-2.73 -0.22,-1.01 -0.79,-1.73 -1.71,-2.18 -0.99,-0.38 -2.24,-0.53 -3.72,-0.44 -0.43,0.01 -0.88,0.02 -1.31,0.02 -1.27,0.03 -2.58,0.05 -3.9,0.07l-0.77 0c-2.67,0.04 -5.35,0.04 -8.05,-0.03 -0.17,0 -0.35,0 -0.51,0 0,0 0,0 0,0 -1.46,0.04 -3,-0.08 -4.63,-0.34 -1.63,-0.25 -3.2,-0.96 -4.71,-2.1z"/>
  <g style="clip-path:url(#id3)">
   <g id="_3077469684768">
    <path id="1" class="fil1" style="mask:url(#id4)" d="M55.76 41.46c36.73,0 66.51,28.26 66.51,63.13 0,34.87 -29.78,63.14 -66.51,63.14 -36.73,0 -66.51,-28.27 -66.51,-63.14 0,-34.87 29.78,-63.13 66.51,-63.13z"/>
    <path class="fil1" style="mask:url(#id6)" d="M161.88 287.13c-36.73,0 -66.51,-28.26 -66.51,-63.13 0,-34.87 29.78,-63.13 66.51,-63.13 36.73,0 66.51,28.26 66.51,63.13 0,34.87 -29.78,63.13 -66.51,63.13z"/>
    <path class="fil1" style="mask:url(#id8)" d="M309.33 41.46c36.73,0 66.51,28.26 66.51,63.13 0,34.87 -29.78,63.14 -66.51,63.14 -36.74,0 -66.51,-28.27 -66.51,-63.14 0,-34.87 29.77,-63.13 66.51,-63.13z"/>
   </g>
  </g>
  <path class="fil6" d="M15.05 151.48l0 0 6.7 0 0 31.77 -6.7 0 0 -31.77zm18.07 7.6l0 0 0 24.17 -6.7 0 0 -31.77 8.12 0 25.92 24.2 0 -24.2 6.69 0 0 31.77 -8.12 0 -25.91 -24.17zm75.82 14.38l0 0c0,1.79 -0.47,3.43 -1.4,4.92 -0.93,1.49 -2.17,2.67 -3.75,3.56 -1.56,0.88 -3.29,1.31 -5.18,1.31l-26.78 0 0 -31.77 25.11 0c1.78,0 3.42,0.42 4.91,1.25 1.47,0.84 2.66,1.96 3.53,3.37 0.87,1.41 1.3,2.96 1.3,4.66 0,1.86 -0.52,3.56 -1.58,5.09 1.18,0.9 2.12,2.01 2.81,3.33 0.68,1.31 1.03,2.74 1.03,4.28zm-30.42 -15.63l0 0 0 5.84 18.42 0c0.83,0 1.55,-0.29 2.16,-0.86 0.6,-0.56 0.89,-1.25 0.89,-2.05 0,-0.81 -0.29,-1.51 -0.89,-2.08 -0.61,-0.56 -1.33,-0.85 -2.16,-0.85l-18.42 0zm0 12.19l0 0 0 6.88 20.09 0c1,0 1.86,-0.33 2.57,-1 0.71,-0.68 1.06,-1.49 1.06,-2.44 0,-0.95 -0.35,-1.76 -1.06,-2.43 -0.71,-0.67 -1.57,-1.01 -2.57,-1.01l-20.09 0zm35.09 -18.54l0 0 6.69 0 0 31.77 -6.69 0 0 -31.77zm11.37 19.07l0 0 0 -6.35c0,-3.4 1.31,-6.4 3.93,-8.99 2.73,-2.48 5.88,-3.73 9.45,-3.73l12.28 0c3.57,0 6.73,1.25 9.47,3.73 2.61,2.59 3.91,5.59 3.91,8.99l0 6.35c0,3.39 -1.3,6.38 -3.91,8.98 -2.74,2.48 -5.9,3.72 -9.47,3.72l-12.28 0c-3.57,0 -6.72,-1.24 -9.45,-3.72 -2.62,-2.6 -3.93,-5.59 -3.93,-8.98zm6.69 -6.35l0 0 0 6.35c0,1.75 0.65,3.25 1.96,4.49 1.31,1.24 2.89,1.86 4.73,1.86l12.28 0c1.84,0 3.42,-0.62 4.73,-1.86 1.31,-1.24 1.96,-2.74 1.96,-4.49l0 -6.35c0,-1.76 -0.65,-3.26 -1.96,-4.5 -1.31,-1.24 -2.89,-1.87 -4.73,-1.87l-12.28 0c-1.84,0 -3.42,0.63 -4.73,1.87 -1.31,1.24 -1.96,2.74 -1.96,4.5zm40.47 3.93l0 0c-1.08,-0.87 -1.92,-1.93 -2.53,-3.19 -0.61,-1.25 -0.91,-2.56 -0.91,-3.94 0,-1.74 0.46,-3.33 1.36,-4.78 0.9,-1.44 2.11,-2.59 3.63,-3.45 1.53,-0.86 3.2,-1.29 5.05,-1.29l27.88 0 0 6.35 -27.88 0c-0.92,0 -1.71,0.32 -2.37,0.94 -0.65,0.62 -0.98,1.36 -0.98,2.23 0,0.88 0.36,1.64 1.08,2.29 0.56,0.43 1.28,0.69 2.15,0.79 0.88,0.1 1.85,0.14 2.92,0.14 0.19,0 0.37,0 0.57,0l0.02 0c2.62,0.05 5.24,0.06 7.86,0.03l0.77 0c1.28,-0.02 2.55,-0.04 3.81,-0.07 0.44,0 0.89,-0.01 1.33,-0.02 1.05,-0.03 2.15,0.01 3.32,0.13 1.16,0.12 2.31,0.44 3.47,0.96 2.88,1.41 4.66,3.63 5.33,6.68 0.28,1.43 0.24,2.85 -0.14,4.24 -0.41,1.48 -1.14,2.79 -2.22,3.93 -0.97,1.01 -2.09,1.78 -3.37,2.34 -1.28,0.54 -2.62,0.81 -4.02,0.81l-28.44 0 0 -6.35 28.44 0c0.9,0 1.71,-0.34 2.41,-1.04 0.72,-0.77 0.97,-1.68 0.77,-2.73 -0.22,-1.01 -0.79,-1.73 -1.71,-2.18 -0.99,-0.38 -2.24,-0.53 -3.72,-0.44 -0.43,0.01 -0.88,0.02 -1.31,0.02 -1.27,0.03 -2.58,0.05 -3.9,0.07l-0.77 0c-2.67,0.04 -5.35,0.04 -8.05,-0.03 -0.17,0 -0.35,0 -0.51,0 0,0 0,0 0,0 -1.46,0.04 -3,-0.08 -4.63,-0.34 -1.63,-0.25 -3.2,-0.96 -4.71,-2.1z"/>
  <g id="_3077469682016">
   <path class="fil7" d="M213.12 151.48l0 0 6.69 0 0 25.42 29.01 0 0 6.35 -35.7 0 0 -31.77zm50.97 26.49l0 0 -2.99 5.28 -7.6 0 18.01 -31.77 7.02 0 18.01 31.77 -7.61 0 -2.99 -5.28 -21.85 0zm10.92 -19.25l0 0 -7.32 12.88 14.65 0 -7.33 -12.88zm63.31 14.74l0 0c0,1.79 -0.47,3.43 -1.39,4.92 -0.93,1.49 -2.18,2.67 -3.75,3.56 -1.56,0.88 -3.29,1.31 -5.18,1.31l-26.78 0 0 -31.77 25.1 0c1.79,0 3.43,0.42 4.91,1.25 1.48,0.84 2.66,1.96 3.53,3.37 0.88,1.41 1.31,2.96 1.31,4.66 0,1.86 -0.53,3.56 -1.59,5.09 1.19,0.9 2.13,2.01 2.81,3.33 0.69,1.31 1.03,2.74 1.03,4.28zm-30.41 -15.63l0 0 0 5.84 18.41 0c0.84,0 1.56,-0.29 2.17,-0.86 0.6,-0.56 0.89,-1.25 0.89,-2.05 0,-0.81 -0.29,-1.51 -0.89,-2.08 -0.61,-0.56 -1.33,-0.85 -2.17,-0.85l-18.41 0zm0 12.19l0 0 0 6.88 20.09 0c1,0 1.85,-0.33 2.56,-1 0.71,-0.68 1.07,-1.49 1.07,-2.44 0,-0.95 -0.36,-1.76 -1.07,-2.43 -0.71,-0.67 -1.56,-1.01 -2.56,-1.01l-20.09 0z"/>
   <g style="clip-path:url(#id10)">
    <g>
     <path id="1" class="fil1" style="mask:url(#id11)" d="M55.76 41.46c36.73,0 66.51,28.26 66.51,63.13 0,34.87 -29.78,63.14 -66.51,63.14 -36.73,0 -66.51,-28.27 -66.51,-63.14 0,-34.87 29.78,-63.13 66.51,-63.13z"/>
     <path class="fil1" style="mask:url(#id13)" d="M161.88 287.13c-36.73,0 -66.51,-28.26 -66.51,-63.13 0,-34.87 29.78,-63.13 66.51,-63.13 36.73,0 66.51,28.26 66.51,63.13 0,34.87 -29.78,63.13 -66.51,63.13z"/>
     <path class="fil1" style="mask:url(#id15)" d="M309.33 41.46c36.73,0 66.51,28.26 66.51,63.13 0,34.87 -29.78,63.14 -66.51,63.14 -36.74,0 -66.51,-28.27 -66.51,-63.14 0,-34.87 29.77,-63.13 66.51,-63.13z"/>
    </g>
   </g>
   <path class="fil6" d="M213.12 151.48l0 0 6.69 0 0 25.42 29.01 0 0 6.35 -35.7 0 0 -31.77zm50.97 26.49l0 0 -2.99 5.28 -7.6 0 18.01 -31.77 7.02 0 18.01 31.77 -7.61 0 -2.99 -5.28 -21.85 0zm10.92 -19.25l0 0 -7.32 12.88 14.65 0 -7.33 -12.88zm63.31 14.74l0 0c0,1.79 -0.47,3.43 -1.39,4.92 -0.93,1.49 -2.18,2.67 -3.75,3.56 -1.56,0.88 -3.29,1.31 -5.18,1.31l-26.78 0 0 -31.77 25.1 0c1.79,0 3.43,0.42 4.91,1.25 1.48,0.84 2.66,1.96 3.53,3.37 0.88,1.41 1.31,2.96 1.31,4.66 0,1.86 -0.53,3.56 -1.59,5.09 1.19,0.9 2.13,2.01 2.81,3.33 0.69,1.31 1.03,2.74 1.03,4.28zm-30.41 -15.63l0 0 0 5.84 18.41 0c0.84,0 1.56,-0.29 2.17,-0.86 0.6,-0.56 0.89,-1.25 0.89,-2.05 0,-0.81 -0.29,-1.51 -0.89,-2.08 -0.61,-0.56 -1.33,-0.85 -2.17,-0.85l-18.41 0zm0 12.19l0 0 0 6.88 20.09 0c1,0 1.85,-0.33 2.56,-1 0.71,-0.68 1.07,-1.49 1.07,-2.44 0,-0.95 -0.36,-1.76 -1.07,-2.43 -0.71,-0.67 -1.56,-1.01 -2.56,-1.01l-20.09 0z"/>
   <rect class="fil4" x="206.13" y="151.48" width="9.4" height="6.35"/>
  </g>
 </g>
</svg>
