<?xml version="1.0" encoding="UTF-8"?>
<!DOCTYPE svg PUBLIC "-//W3C//DTD SVG 1.0//EN" "http://www.w3.org/TR/2001/REC-SVG-20010904/DTD/svg10.dtd">
<!-- Creator: CorelDRAW 2018 (64 Bit) -->
<svg xmlns="http://www.w3.org/2000/svg" xml:space="preserve" width="591px" height="591px" version="1.0" style="shape-rendering:geometricPrecision; text-rendering:geometricPrecision; image-rendering:optimizeQuality; fill-rule:evenodd; clip-rule:evenodd"
viewBox="0 0 591 591"
 xmlns:xlink="http://www.w3.org/1999/xlink">
 <defs>
  <style type="text/css">
   <![CDATA[
    .fil3 {fill:none}
    .fil6 {fill:none;fill-rule:nonzero}
    .fil1 {fill:#FEFEFE}
    .fil4 {fill:#2A6EB4}
    .fil2 {fill:white}
    .fil7 {fill:#2A6EB4;fill-rule:nonzero}
    .fil5 {fill:#323F70;fill-rule:nonzero}
    .fil0 {fill:url(#id17)}
   ]]>
  </style>
   <clipPath id="id0">
    <path d="M329.54 307.02l19.68 -18.68c1.32,-1.25 3.47,-1.25 4.79,0l19.67 18.68c1.32,1.25 1.32,3.29 0,4.54l-19.68 18.68c-1.31,1.25 -3.46,1.25 -4.78,0l-19.68 -18.68c-1.31,-1.25 -1.32,-3.29 0,-4.54z"/>
   </clipPath>
     <mask id="id1">
  <linearGradient id="id2" gradientUnits="userSpaceOnUse" x1="340.79" y1="323.24" x2="352.38" y2="304.58">
   <stop offset="0" style="stop-opacity:1; stop-color:white"/>
   <stop offset="1" style="stop-opacity:0; stop-color:white"/>
  </linearGradient>
      <rect style="fill:url(#id2)" x="337.18" y="272.33" width="45.2" height="43.02"/>
     </mask>
   <clipPath id="id3" style="clip-rule:nonzero">
    <path d="M296.11 334.38l0 0 2.44 0 0 11.61 -2.44 0 0 -11.61zm6.6 2.77l0 0 0 8.84 -2.45 0 0 -11.61 2.97 0 9.47 8.84 0 -8.84 2.44 0 0 11.61 -2.96 0 -9.47 -8.84zm27.7 5.26l0 0c0,0.65 -0.17,1.25 -0.51,1.8 -0.34,0.54 -0.79,0.97 -1.37,1.3 -0.57,0.32 -1.2,0.48 -1.89,0.48l-9.79 0 0 -11.61 9.18 0c0.65,0 1.25,0.15 1.79,0.46 0.54,0.3 0.97,0.71 1.29,1.23 0.32,0.51 0.48,1.08 0.48,1.7 0,0.68 -0.19,1.3 -0.58,1.86 0.43,0.33 0.77,0.73 1.02,1.22 0.26,0.47 0.38,1 0.38,1.56zm-11.11 -5.71l0 0 0 2.13 6.73 0c0.3,0 0.56,-0.1 0.79,-0.31 0.21,-0.21 0.32,-0.46 0.32,-0.75 0,-0.3 -0.11,-0.55 -0.32,-0.76 -0.23,-0.21 -0.49,-0.31 -0.79,-0.31l-6.73 0zm0 4.45l0 0 0 2.52 7.34 0c0.36,0 0.67,-0.13 0.93,-0.37 0.26,-0.25 0.4,-0.54 0.4,-0.89 0,-0.35 -0.14,-0.64 -0.4,-0.89 -0.26,-0.25 -0.57,-0.37 -0.93,-0.37l-7.34 0zm12.82 -6.77l0 0 2.44 0 0 11.61 -2.44 0 0 -11.61zm4.15 6.97l0 0 0 -2.32c0,-1.25 0.48,-2.34 1.44,-3.29 0.99,-0.91 2.15,-1.36 3.45,-1.36l4.49 0c1.3,0 2.46,0.45 3.46,1.36 0.95,0.95 1.43,2.04 1.43,3.29l0 2.32c0,1.23 -0.48,2.33 -1.43,3.28 -1,0.9 -2.16,1.36 -3.46,1.36l-4.49 0c-1.3,0 -2.46,-0.46 -3.45,-1.36 -0.96,-0.95 -1.44,-2.05 -1.44,-3.28zm2.45 -2.32l0 0 0 2.32c0,0.64 0.24,1.18 0.71,1.64 0.48,0.45 1.06,0.68 1.73,0.68l4.49 0c0.67,0 1.25,-0.23 1.72,-0.68 0.48,-0.46 0.72,-1 0.72,-1.64l0 -2.32c0,-0.65 -0.24,-1.2 -0.72,-1.65 -0.47,-0.45 -1.05,-0.68 -1.72,-0.68l-4.49 0c-0.67,0 -1.25,0.23 -1.73,0.68 -0.47,0.45 -0.71,1 -0.71,1.65zm14.78 1.43l0 0c-0.39,-0.32 -0.7,-0.7 -0.92,-1.16 -0.22,-0.46 -0.33,-0.94 -0.33,-1.44 0,-0.64 0.16,-1.22 0.49,-1.75 0.33,-0.53 0.77,-0.95 1.33,-1.26 0.56,-0.32 1.17,-0.47 1.84,-0.47l10.19 0 0 2.32 -10.19 0c-0.33,0 -0.62,0.11 -0.86,0.34 -0.24,0.23 -0.36,0.5 -0.36,0.82 0,0.32 0.13,0.6 0.39,0.83 0.21,0.16 0.47,0.26 0.79,0.29 0.32,0.04 0.68,0.05 1.07,0.05 0.07,0 0.13,0 0.2,0l0.01 0c0.96,0.02 1.92,0.02 2.87,0.01l0.29 0c0.46,0 0.93,-0.01 1.39,-0.02 0.16,0 0.32,-0.01 0.48,-0.01 0.39,-0.01 0.79,0 1.22,0.05 0.42,0.04 0.84,0.16 1.26,0.35 1.06,0.51 1.71,1.32 1.95,2.44 0.11,0.52 0.09,1.04 -0.05,1.55 -0.15,0.54 -0.42,1.02 -0.81,1.44 -0.35,0.36 -0.76,0.65 -1.23,0.85 -0.47,0.2 -0.96,0.3 -1.47,0.3l-10.39 0 0 -2.32 10.39 0c0.33,0 0.62,-0.13 0.88,-0.39 0.26,-0.28 0.36,-0.61 0.28,-0.99 -0.08,-0.37 -0.29,-0.63 -0.62,-0.8 -0.37,-0.14 -0.82,-0.19 -1.36,-0.16 -0.16,0 -0.32,0.01 -0.48,0.01 -0.47,0.01 -0.94,0.02 -1.43,0.02l-0.28 0c-0.97,0.02 -1.95,0.02 -2.94,-0.01 -0.06,0 -0.13,0 -0.19,0 0,0 0,0 0,0 -0.53,0.02 -1.09,-0.03 -1.68,-0.12 -0.6,-0.09 -1.17,-0.35 -1.73,-0.77z"/>
   </clipPath>
     <mask id="id4">
  <linearGradient id="id5" gradientUnits="userSpaceOnUse" x1="289.44" y1="350.59" x2="302.58" y2="329.42">
   <stop offset="0" style="stop-opacity:1; stop-color:white"/>
   <stop offset="1" style="stop-opacity:0; stop-color:white"/>
  </linearGradient>
      <rect style="fill:url(#id5)" x="285.5" y="293" width="50.96" height="48.49"/>
     </mask>
     <mask id="id6">
  <linearGradient id="id7" gradientUnits="userSpaceOnUse" x1="389.05" y1="322.73" x2="358.32" y2="349.17">
   <stop offset="0" style="stop-opacity:1; stop-color:white"/>
   <stop offset="0.258824" style="stop-opacity:0.501961; stop-color:white"/>
   <stop offset="1" style="stop-opacity:0; stop-color:white"/>
  </linearGradient>
      <rect style="fill:url(#id7)" x="324.27" y="336.63" width="50.96" height="48.49"/>
     </mask>
     <mask id="id8">
  <linearGradient id="id9" gradientUnits="userSpaceOnUse" x1="382.08" y1="350.59" x2="395.23" y2="329.42">
   <stop offset="0" style="stop-opacity:1; stop-color:white"/>
   <stop offset="1" style="stop-opacity:0; stop-color:white"/>
  </linearGradient>
      <rect style="fill:url(#id9)" x="378.15" y="293" width="50.96" height="48.49"/>
     </mask>
    <clipPath id="id10" style="clip-rule:nonzero">
     <path d="M368.48 334.38l0 0 2.44 0 0 9.29 10.6 0 0 2.32 -13.04 0 0 -11.61zm18.62 9.68l0 0 -1.09 1.93 -2.78 0 6.58 -11.61 2.56 0 6.58 11.61 -2.78 0 -1.09 -1.93 -7.98 0zm3.99 -7.04l0 0 -2.68 4.71 5.36 0 -2.68 -4.71zm23.13 5.39l0 0c0,0.65 -0.17,1.25 -0.51,1.8 -0.34,0.54 -0.79,0.97 -1.37,1.3 -0.57,0.32 -1.2,0.48 -1.89,0.48l-9.79 0 0 -11.61 9.18 0c0.65,0 1.25,0.15 1.79,0.46 0.54,0.3 0.97,0.71 1.29,1.23 0.32,0.51 0.48,1.08 0.48,1.7 0,0.68 -0.19,1.3 -0.58,1.86 0.43,0.33 0.77,0.73 1.03,1.22 0.25,0.47 0.37,1 0.37,1.56zm-11.11 -5.71l0 0 0 2.13 6.73 0c0.3,0 0.57,-0.1 0.79,-0.31 0.22,-0.21 0.32,-0.46 0.32,-0.75 0,-0.3 -0.1,-0.55 -0.32,-0.76 -0.22,-0.21 -0.49,-0.31 -0.79,-0.31l-6.73 0zm0 4.45l0 0 0 2.52 7.34 0c0.36,0 0.68,-0.13 0.94,-0.37 0.26,-0.25 0.39,-0.54 0.39,-0.89 0,-0.35 -0.13,-0.64 -0.39,-0.89 -0.26,-0.25 -0.58,-0.37 -0.94,-0.37l-7.34 0z"/>
    </clipPath>
      <mask id="id11">
  <linearGradient id="id12" gradientUnits="userSpaceOnUse" x1="289.44" y1="350.59" x2="302.58" y2="329.42">
   <stop offset="0" style="stop-opacity:1; stop-color:white"/>
   <stop offset="1" style="stop-opacity:0; stop-color:white"/>
  </linearGradient>
       <rect style="fill:url(#id12)" x="285.5" y="293" width="50.96" height="48.49"/>
      </mask>
      <mask id="id13">
  <linearGradient id="id14" gradientUnits="userSpaceOnUse" x1="389.05" y1="322.73" x2="358.32" y2="349.17">
   <stop offset="0" style="stop-opacity:1; stop-color:white"/>
   <stop offset="0.258824" style="stop-opacity:0.501961; stop-color:white"/>
   <stop offset="1" style="stop-opacity:0; stop-color:white"/>
  </linearGradient>
       <rect style="fill:url(#id14)" x="324.27" y="336.63" width="50.96" height="48.49"/>
      </mask>
      <mask id="id15">
  <linearGradient id="id16" gradientUnits="userSpaceOnUse" x1="382.08" y1="350.59" x2="395.23" y2="329.42">
   <stop offset="0" style="stop-opacity:1; stop-color:white"/>
   <stop offset="1" style="stop-opacity:0; stop-color:white"/>
  </linearGradient>
       <rect style="fill:url(#id16)" x="378.15" y="293" width="50.96" height="48.49"/>
      </mask>
  <linearGradient id="id17" gradientUnits="userSpaceOnUse" x1="349.43" y1="315.8" x2="355.29" y2="295.65">
   <stop offset="0" style="stop-opacity:1; stop-color:#2A6EB4"/>
   <stop offset="1" style="stop-opacity:1; stop-color:#45C7EF"/>
  </linearGradient>
 </defs>
 <g id="Capa_x0020_1">
  <metadata id="CorelCorpID_0Corel-Layer"/>
  <path class="fil0" d="M329.54 307.02l19.68 -18.68c1.32,-1.25 3.47,-1.25 4.79,0l19.67 18.68c1.32,1.25 1.32,3.29 0,4.54l-19.68 18.68c-1.31,1.25 -3.46,1.25 -4.78,0l-19.68 -18.68c-1.31,-1.25 -1.32,-3.29 0,-4.54z"/>
  <g style="clip-path:url(#id0)">
   <g id="_3077469229792">
    <path id="1" class="fil1" style="mask:url(#id1)" d="M359.78 273.51c11.83,0 21.42,9.11 21.42,20.33 0,11.23 -9.59,20.33 -21.42,20.33 -11.83,0 -21.42,-9.1 -21.42,-20.33 0,-11.22 9.59,-20.33 21.42,-20.33z"/>
    <path class="fil2" d="M361.01 309.29l0 23.63 -19.32 0 0 -23.63 -1.28 0c-0.37,0 -0.67,-0.29 -0.67,-0.63l0 -2.09c0,-0.35 0.3,-0.64 0.67,-0.64l22.41 0c0.36,0 0.66,0.29 0.66,0.64l0 2.09c0,0.34 -0.3,0.63 -0.66,0.63l-1.81 0z"/>
   </g>
  </g>
  <path class="fil3" d="M329.54 307.02l19.68 -18.68c1.32,-1.25 3.47,-1.25 4.79,0l19.67 18.68c1.32,1.25 1.32,3.29 0,4.54l-19.68 18.68c-1.31,1.25 -3.46,1.25 -4.78,0l-19.68 -18.68c-1.31,-1.25 -1.32,-3.29 0,-4.54z"/>
  <rect class="fil4" x="344.94" y="311.24" width="6.67" height="1.51" rx="0.62" ry="0.51"/>
  <rect class="fil4" x="344.94" y="315.26" width="6.67" height="1.51" rx="0.62" ry="0.51"/>
  <rect class="fil4" x="344.94" y="319.28" width="6.67" height="1.51" rx="0.62" ry="0.51"/>
  <rect class="fil4" x="344.94" y="323.3" width="6.67" height="1.51" rx="0.62" ry="0.51"/>
  <path class="fil5" d="M299.05 354.91l3.6 0 0 -0.74 -2.65 0 0 -3.98 -0.95 0 0 4.72zm9.45 0l0.99 0 -2.29 -4.72 -0.93 0 -2.29 4.72 0.98 0 0.5 -1.09 2.53 0 0.51 1.09zm-2.72 -1.78l0.95 -2.06 0.95 2.06 -1.9 0zm9.22 -0.67c0.39,-0.2 0.66,-0.56 0.66,-1.04 0,-0.75 -0.66,-1.23 -1.88,-1.23l-2.38 0 0 4.72 2.53 0c1.3,0 1.99,-0.48 1.99,-1.28 0,-0.62 -0.37,-1.01 -0.92,-1.17zm-1.32 -1.58c0.66,0 1.03,0.22 1.03,0.65 0,0.43 -0.37,0.65 -1.03,0.65l-1.33 0 0 -1.3 1.33 0zm0.19 3.34l-1.52 0 0 -1.36 1.52 0c0.71,0 1.1,0.21 1.1,0.68 0,0.47 -0.39,0.68 -1.1,0.68zm6.7 0.75c1.57,0 2.73,-1.02 2.73,-2.42 0,-1.4 -1.16,-2.42 -2.73,-2.42 -1.58,0 -2.74,1.03 -2.74,2.42 0,1.39 1.16,2.42 2.74,2.42zm0 -0.76c-1.03,0 -1.79,-0.7 -1.79,-1.66 0,-0.96 0.76,-1.66 1.79,-1.66 1.02,0 1.78,0.7 1.78,1.66 0,0.96 -0.76,1.66 -1.78,1.66zm9.34 0.7l-1.17 -1.55c0.69,-0.25 1.08,-0.78 1.08,-1.49 0,-1.04 -0.82,-1.68 -2.16,-1.68l-2.09 0 0 4.72 0.95 0 0 -1.38 1.14 0c0.07,0 0.13,0 0.2,0l1.03 1.38 1.02 0zm-1.04 -3.04c0,0.59 -0.43,0.94 -1.25,0.94l-1.1 0 0 -1.88 1.1 0c0.82,0 1.25,0.35 1.25,0.94zm7.07 3.04l0.99 0 -2.29 -4.72 -0.93 0 -2.28 4.72 0.97 0 0.5 -1.09 2.54 0 0.5 1.09zm-2.72 -1.78l0.95 -2.06 0.96 2.06 -1.91 0zm6.4 1.78l0.95 0 0 -3.98 1.68 0 0 -0.74 -4.31 0 0 0.74 1.68 0 0 3.98zm6.91 0.06c1.57,0 2.73,-1.02 2.73,-2.42 0,-1.4 -1.16,-2.42 -2.73,-2.42 -1.58,0 -2.74,1.03 -2.74,2.42 0,1.39 1.16,2.42 2.74,2.42zm0 -0.76c-1.02,0 -1.79,-0.7 -1.79,-1.66 0,-0.96 0.77,-1.66 1.79,-1.66 1.02,0 1.78,0.7 1.78,1.66 0,0.96 -0.76,1.66 -1.78,1.66zm9.34 0.7l-1.17 -1.55c0.69,-0.25 1.08,-0.78 1.08,-1.49 0,-1.04 -0.82,-1.68 -2.16,-1.68l-2.09 0 0 4.72 0.95 0 0 -1.38 1.14 0c0.07,0 0.13,0 0.2,0l1.04 1.38 1.01 0zm-1.04 -3.04c0,0.59 -0.42,0.94 -1.25,0.94l-1.1 0 0 -1.88 1.1 0c0.83,0 1.25,0.35 1.25,0.94zm3.28 3.04l0.94 0 0 -4.72 -0.94 0 0 4.72zm5.95 0.06c1.58,0 2.74,-1.02 2.74,-2.42 0,-1.4 -1.16,-2.42 -2.74,-2.42 -1.57,0 -2.73,1.03 -2.73,2.42 0,1.39 1.16,2.42 2.73,2.42zm0 -0.76c-1.02,0 -1.78,-0.7 -1.78,-1.66 0,-0.96 0.76,-1.66 1.78,-1.66 1.02,0 1.79,0.7 1.79,1.66 0,0.96 -0.77,1.66 -1.79,1.66zm11.36 0.76c0.83,0 1.55,-0.27 2.02,-0.78l-0.61 -0.54c-0.37,0.37 -0.83,0.56 -1.36,0.56 -1.05,0 -1.81,-0.69 -1.81,-1.66 0,-0.97 0.76,-1.66 1.81,-1.66 0.53,0 0.99,0.19 1.36,0.56l0.61 -0.54c-0.47,-0.51 -1.19,-0.78 -2.01,-0.78 -1.56,0 -2.72,1.01 -2.72,2.42 0,1.41 1.16,2.42 2.71,2.42zm4.19 -0.06l3.6 0 0 -0.74 -2.65 0 0 -3.98 -0.95 0 0 4.72zm5.48 -5.1l0.78 0 1.27 -0.92 -1.07 0 -0.98 0.92zm0.14 5.1l0.94 0 0 -4.72 -0.94 0 0 4.72zm7.16 -4.72l0 3.19 -2.8 -3.19 -0.78 0 0 4.72 0.94 0 0 -3.2 2.8 3.2 0.77 0 0 -4.72 -0.93 0zm3.57 4.72l0.94 0 0 -4.72 -0.94 0 0 4.72zm5.93 0.06c0.84,0 1.55,-0.27 2.02,-0.78l-0.61 -0.54c-0.37,0.37 -0.83,0.56 -1.36,0.56 -1.05,0 -1.81,-0.69 -1.81,-1.66 0,-0.97 0.76,-1.66 1.81,-1.66 0.53,0 0.99,0.19 1.36,0.56l0.61 -0.54c-0.47,-0.51 -1.18,-0.78 -2.01,-0.78 -1.56,0 -2.72,1.01 -2.72,2.42 0,1.41 1.16,2.42 2.71,2.42zm6.46 0c1.57,0 2.73,-1.02 2.73,-2.42 0,-1.4 -1.16,-2.42 -2.73,-2.42 -1.58,0 -2.74,1.03 -2.74,2.42 0,1.39 1.16,2.42 2.74,2.42zm0 -0.76c-1.02,0 -1.79,-0.7 -1.79,-1.66 0,-0.96 0.77,-1.66 1.79,-1.66 1.02,0 1.78,0.7 1.78,1.66 0,0.96 -0.76,1.66 -1.78,1.66z"/>
  <path class="fil5" d="M296.11 334.38l0 0 2.44 0 0 11.61 -2.44 0 0 -11.61zm6.6 2.77l0 0 0 8.84 -2.45 0 0 -11.61 2.97 0 9.47 8.84 0 -8.84 2.44 0 0 11.61 -2.96 0 -9.47 -8.84zm27.7 5.26l0 0c0,0.65 -0.17,1.25 -0.51,1.8 -0.34,0.54 -0.79,0.97 -1.37,1.3 -0.57,0.32 -1.2,0.48 -1.89,0.48l-9.79 0 0 -11.61 9.18 0c0.65,0 1.25,0.15 1.79,0.46 0.54,0.3 0.97,0.71 1.29,1.23 0.32,0.51 0.48,1.08 0.48,1.7 0,0.68 -0.19,1.3 -0.58,1.86 0.43,0.33 0.77,0.73 1.02,1.22 0.26,0.47 0.38,1 0.38,1.56zm-11.11 -5.71l0 0 0 2.13 6.73 0c0.3,0 0.56,-0.1 0.79,-0.31 0.21,-0.21 0.32,-0.46 0.32,-0.75 0,-0.3 -0.11,-0.55 -0.32,-0.76 -0.23,-0.21 -0.49,-0.31 -0.79,-0.31l-6.73 0zm0 4.45l0 0 0 2.52 7.34 0c0.36,0 0.67,-0.13 0.93,-0.37 0.26,-0.25 0.4,-0.54 0.4,-0.89 0,-0.35 -0.14,-0.64 -0.4,-0.89 -0.26,-0.25 -0.57,-0.37 -0.93,-0.37l-7.34 0zm12.82 -6.77l0 0 2.44 0 0 11.61 -2.44 0 0 -11.61zm4.15 6.97l0 0 0 -2.32c0,-1.25 0.48,-2.34 1.44,-3.29 0.99,-0.91 2.15,-1.36 3.45,-1.36l4.49 0c1.3,0 2.46,0.45 3.46,1.36 0.95,0.95 1.43,2.04 1.43,3.29l0 2.32c0,1.23 -0.48,2.33 -1.43,3.28 -1,0.9 -2.16,1.36 -3.46,1.36l-4.49 0c-1.3,0 -2.46,-0.46 -3.45,-1.36 -0.96,-0.95 -1.44,-2.05 -1.44,-3.28zm2.45 -2.32l0 0 0 2.32c0,0.64 0.24,1.18 0.71,1.64 0.48,0.45 1.06,0.68 1.73,0.68l4.49 0c0.67,0 1.25,-0.23 1.72,-0.68 0.48,-0.46 0.72,-1 0.72,-1.64l0 -2.32c0,-0.65 -0.24,-1.2 -0.72,-1.65 -0.47,-0.45 -1.05,-0.68 -1.72,-0.68l-4.49 0c-0.67,0 -1.25,0.23 -1.73,0.68 -0.47,0.45 -0.71,1 -0.71,1.65zm14.78 1.43l0 0c-0.39,-0.32 -0.7,-0.7 -0.92,-1.16 -0.22,-0.46 -0.33,-0.94 -0.33,-1.44 0,-0.64 0.16,-1.22 0.49,-1.75 0.33,-0.53 0.77,-0.95 1.33,-1.26 0.56,-0.32 1.17,-0.47 1.84,-0.47l10.19 0 0 2.32 -10.19 0c-0.33,0 -0.62,0.11 -0.86,0.34 -0.24,0.23 -0.36,0.5 -0.36,0.82 0,0.32 0.13,0.6 0.39,0.83 0.21,0.16 0.47,0.26 0.79,0.29 0.32,0.04 0.68,0.05 1.07,0.05 0.07,0 0.13,0 0.2,0l0.01 0c0.96,0.02 1.92,0.02 2.87,0.01l0.29 0c0.46,0 0.93,-0.01 1.39,-0.02 0.16,0 0.32,-0.01 0.48,-0.01 0.39,-0.01 0.79,0 1.22,0.05 0.42,0.04 0.84,0.16 1.26,0.35 1.06,0.51 1.71,1.32 1.95,2.44 0.11,0.52 0.09,1.04 -0.05,1.55 -0.15,0.54 -0.42,1.02 -0.81,1.44 -0.35,0.36 -0.76,0.65 -1.23,0.85 -0.47,0.2 -0.96,0.3 -1.47,0.3l-10.39 0 0 -2.32 10.39 0c0.33,0 0.62,-0.13 0.88,-0.39 0.26,-0.28 0.36,-0.61 0.28,-0.99 -0.08,-0.37 -0.29,-0.63 -0.62,-0.8 -0.37,-0.14 -0.82,-0.19 -1.36,-0.16 -0.16,0 -0.32,0.01 -0.48,0.01 -0.47,0.01 -0.94,0.02 -1.43,0.02l-0.28 0c-0.97,0.02 -1.95,0.02 -2.94,-0.01 -0.06,0 -0.13,0 -0.19,0 0,0 0,0 0,0 -0.53,0.02 -1.09,-0.03 -1.68,-0.12 -0.6,-0.09 -1.17,-0.35 -1.73,-0.77z"/>
  <g style="clip-path:url(#id3)">
   <g id="_3077469212448">
    <path id="1" class="fil1" style="mask:url(#id4)" d="M310.98 294.18c13.42,0 24.3,10.33 24.3,23.07 0,12.73 -10.88,23.06 -24.3,23.06 -13.42,0 -24.3,-10.33 -24.3,-23.06 0,-12.74 10.88,-23.07 24.3,-23.07z"/>
    <path class="fil1" style="mask:url(#id6)" d="M349.75 383.94c-13.42,0 -24.3,-10.33 -24.3,-23.07 0,-12.74 10.88,-23.06 24.3,-23.06 13.42,0 24.3,10.32 24.3,23.06 0,12.74 -10.88,23.07 -24.3,23.07z"/>
    <path class="fil1" style="mask:url(#id8)" d="M403.63 294.18c13.42,0 24.3,10.33 24.3,23.07 0,12.73 -10.88,23.06 -24.3,23.06 -13.42,0 -24.3,-10.33 -24.3,-23.06 0,-12.74 10.88,-23.07 24.3,-23.07z"/>
   </g>
  </g>
  <path class="fil6" d="M296.11 334.38l0 0 2.44 0 0 11.61 -2.44 0 0 -11.61zm6.6 2.77l0 0 0 8.84 -2.45 0 0 -11.61 2.97 0 9.47 8.84 0 -8.84 2.44 0 0 11.61 -2.96 0 -9.47 -8.84zm27.7 5.26l0 0c0,0.65 -0.17,1.25 -0.51,1.8 -0.34,0.54 -0.79,0.97 -1.37,1.3 -0.57,0.32 -1.2,0.48 -1.89,0.48l-9.79 0 0 -11.61 9.18 0c0.65,0 1.25,0.15 1.79,0.46 0.54,0.3 0.97,0.71 1.29,1.23 0.32,0.51 0.48,1.08 0.48,1.7 0,0.68 -0.19,1.3 -0.58,1.86 0.43,0.33 0.77,0.73 1.02,1.22 0.26,0.47 0.38,1 0.38,1.56zm-11.11 -5.71l0 0 0 2.13 6.73 0c0.3,0 0.56,-0.1 0.79,-0.31 0.21,-0.21 0.32,-0.46 0.32,-0.75 0,-0.3 -0.11,-0.55 -0.32,-0.76 -0.23,-0.21 -0.49,-0.31 -0.79,-0.31l-6.73 0zm0 4.45l0 0 0 2.52 7.34 0c0.36,0 0.67,-0.13 0.93,-0.37 0.26,-0.25 0.4,-0.54 0.4,-0.89 0,-0.35 -0.14,-0.64 -0.4,-0.89 -0.26,-0.25 -0.57,-0.37 -0.93,-0.37l-7.34 0zm12.82 -6.77l0 0 2.44 0 0 11.61 -2.44 0 0 -11.61zm4.15 6.97l0 0 0 -2.32c0,-1.25 0.48,-2.34 1.44,-3.29 0.99,-0.91 2.15,-1.36 3.45,-1.36l4.49 0c1.3,0 2.46,0.45 3.46,1.36 0.95,0.95 1.43,2.04 1.43,3.29l0 2.32c0,1.23 -0.48,2.33 -1.43,3.28 -1,0.9 -2.16,1.36 -3.46,1.36l-4.49 0c-1.3,0 -2.46,-0.46 -3.45,-1.36 -0.96,-0.95 -1.44,-2.05 -1.44,-3.28zm2.45 -2.32l0 0 0 2.32c0,0.64 0.24,1.18 0.71,1.64 0.48,0.45 1.06,0.68 1.73,0.68l4.49 0c0.67,0 1.25,-0.23 1.72,-0.68 0.48,-0.46 0.72,-1 0.72,-1.64l0 -2.32c0,-0.65 -0.24,-1.2 -0.72,-1.65 -0.47,-0.45 -1.05,-0.68 -1.72,-0.68l-4.49 0c-0.67,0 -1.25,0.23 -1.73,0.68 -0.47,0.45 -0.71,1 -0.71,1.65zm14.78 1.43l0 0c-0.39,-0.32 -0.7,-0.7 -0.92,-1.16 -0.22,-0.46 -0.33,-0.94 -0.33,-1.44 0,-0.64 0.16,-1.22 0.49,-1.75 0.33,-0.53 0.77,-0.95 1.33,-1.26 0.56,-0.32 1.17,-0.47 1.84,-0.47l10.19 0 0 2.32 -10.19 0c-0.33,0 -0.62,0.11 -0.86,0.34 -0.24,0.23 -0.36,0.5 -0.36,0.82 0,0.32 0.13,0.6 0.39,0.83 0.21,0.16 0.47,0.26 0.79,0.29 0.32,0.04 0.68,0.05 1.07,0.05 0.07,0 0.13,0 0.2,0l0.01 0c0.96,0.02 1.92,0.02 2.87,0.01l0.29 0c0.46,0 0.93,-0.01 1.39,-0.02 0.16,0 0.32,-0.01 0.48,-0.01 0.39,-0.01 0.79,0 1.22,0.05 0.42,0.04 0.84,0.16 1.26,0.35 1.06,0.51 1.71,1.32 1.95,2.44 0.11,0.52 0.09,1.04 -0.05,1.55 -0.15,0.54 -0.42,1.02 -0.81,1.44 -0.35,0.36 -0.76,0.65 -1.23,0.85 -0.47,0.2 -0.96,0.3 -1.47,0.3l-10.39 0 0 -2.32 10.39 0c0.33,0 0.62,-0.13 0.88,-0.39 0.26,-0.28 0.36,-0.61 0.28,-0.99 -0.08,-0.37 -0.29,-0.63 -0.62,-0.8 -0.37,-0.14 -0.82,-0.19 -1.36,-0.16 -0.16,0 -0.32,0.01 -0.48,0.01 -0.47,0.01 -0.94,0.02 -1.43,0.02l-0.28 0c-0.97,0.02 -1.95,0.02 -2.94,-0.01 -0.06,0 -0.13,0 -0.19,0 0,0 0,0 0,0 -0.53,0.02 -1.09,-0.03 -1.68,-0.12 -0.6,-0.09 -1.17,-0.35 -1.73,-0.77z"/>
  <g id="_3077469244896">
   <path class="fil7" d="M368.48 334.38l0 0 2.44 0 0 9.29 10.6 0 0 2.32 -13.04 0 0 -11.61zm18.62 9.68l0 0 -1.09 1.93 -2.78 0 6.58 -11.61 2.56 0 6.58 11.61 -2.78 0 -1.09 -1.93 -7.98 0zm3.99 -7.04l0 0 -2.68 4.71 5.36 0 -2.68 -4.71zm23.13 5.39l0 0c0,0.65 -0.17,1.25 -0.51,1.8 -0.34,0.54 -0.79,0.97 -1.37,1.3 -0.57,0.32 -1.2,0.48 -1.89,0.48l-9.79 0 0 -11.61 9.18 0c0.65,0 1.25,0.15 1.79,0.46 0.54,0.3 0.97,0.71 1.29,1.23 0.32,0.51 0.48,1.08 0.48,1.7 0,0.68 -0.19,1.3 -0.58,1.86 0.43,0.33 0.77,0.73 1.03,1.22 0.25,0.47 0.37,1 0.37,1.56zm-11.11 -5.71l0 0 0 2.13 6.73 0c0.3,0 0.57,-0.1 0.79,-0.31 0.22,-0.21 0.32,-0.46 0.32,-0.75 0,-0.3 -0.1,-0.55 -0.32,-0.76 -0.22,-0.21 -0.49,-0.31 -0.79,-0.31l-6.73 0zm0 4.45l0 0 0 2.52 7.34 0c0.36,0 0.68,-0.13 0.94,-0.37 0.26,-0.25 0.39,-0.54 0.39,-0.89 0,-0.35 -0.13,-0.64 -0.39,-0.89 -0.26,-0.25 -0.58,-0.37 -0.94,-0.37l-7.34 0z"/>
   <g style="clip-path:url(#id10)">
    <g>
     <path id="1" class="fil1" style="mask:url(#id11)" d="M310.98 294.18c13.42,0 24.3,10.33 24.3,23.07 0,12.73 -10.88,23.06 -24.3,23.06 -13.42,0 -24.3,-10.33 -24.3,-23.06 0,-12.74 10.88,-23.07 24.3,-23.07z"/>
     <path class="fil1" style="mask:url(#id13)" d="M349.75 383.94c-13.42,0 -24.3,-10.33 -24.3,-23.07 0,-12.74 10.88,-23.06 24.3,-23.06 13.42,0 24.3,10.32 24.3,23.06 0,12.74 -10.88,23.07 -24.3,23.07z"/>
     <path class="fil1" style="mask:url(#id15)" d="M403.63 294.18c13.42,0 24.3,10.33 24.3,23.07 0,12.73 -10.88,23.06 -24.3,23.06 -13.42,0 -24.3,-10.33 -24.3,-23.06 0,-12.74 10.88,-23.07 24.3,-23.07z"/>
    </g>
   </g>
   <path class="fil6" d="M368.48 334.38l0 0 2.44 0 0 9.29 10.6 0 0 2.32 -13.04 0 0 -11.61zm18.62 9.68l0 0 -1.09 1.93 -2.78 0 6.58 -11.61 2.56 0 6.58 11.61 -2.78 0 -1.09 -1.93 -7.98 0zm3.99 -7.04l0 0 -2.68 4.71 5.36 0 -2.68 -4.71zm23.13 5.39l0 0c0,0.65 -0.17,1.25 -0.51,1.8 -0.34,0.54 -0.79,0.97 -1.37,1.3 -0.57,0.32 -1.2,0.48 -1.89,0.48l-9.79 0 0 -11.61 9.18 0c0.65,0 1.25,0.15 1.79,0.46 0.54,0.3 0.97,0.71 1.29,1.23 0.32,0.51 0.48,1.08 0.48,1.7 0,0.68 -0.19,1.3 -0.58,1.86 0.43,0.33 0.77,0.73 1.03,1.22 0.25,0.47 0.37,1 0.37,1.56zm-11.11 -5.71l0 0 0 2.13 6.73 0c0.3,0 0.57,-0.1 0.79,-0.31 0.22,-0.21 0.32,-0.46 0.32,-0.75 0,-0.3 -0.1,-0.55 -0.32,-0.76 -0.22,-0.21 -0.49,-0.31 -0.79,-0.31l-6.73 0zm0 4.45l0 0 0 2.52 7.34 0c0.36,0 0.68,-0.13 0.94,-0.37 0.26,-0.25 0.39,-0.54 0.39,-0.89 0,-0.35 -0.13,-0.64 -0.39,-0.89 -0.26,-0.25 -0.58,-0.37 -0.94,-0.37l-7.34 0z"/>
   <rect class="fil4" x="365.92" y="334.38" width="3.44" height="2.32"/>
  </g>
 </g>
</svg>
