<?xml version="1.0" encoding="UTF-8"?>
<!DOCTYPE svg PUBLIC "-//W3C//DTD SVG 1.0//EN" "http://www.w3.org/TR/2001/REC-SVG-20010904/DTD/svg10.dtd">
<!-- Creator: CorelDRAW 2018 (64 Bit) -->
<svg xmlns="http://www.w3.org/2000/svg" xml:space="preserve" width="213px" height="59px" version="1.0" style="shape-rendering:geometricPrecision; text-rendering:geometricPrecision; image-rendering:optimizeQuality; fill-rule:evenodd; clip-rule:evenodd"
viewBox="0 0 213 59.17"
 xmlns:xlink="http://www.w3.org/1999/xlink">
 <defs>
  <style type="text/css">
   <![CDATA[
    .str0 {stroke:white;stroke-width:2.37;stroke-miterlimit:22.9256}
    .fil3 {fill:none}
    .fil5 {fill:none;fill-rule:nonzero}
    .fil1 {fill:#FEFEFE}
    .fil0 {fill:black}
    .fil2 {fill:white}
    .fil4 {fill:white;fill-rule:nonzero}
   ]]>
  </style>
   <clipPath id="id0">
    <path d="M2.65 26.04l24.32 -23.08c1.63,-1.54 4.29,-1.54 5.91,0l24.32 23.08c1.62,1.54 1.62,4.07 0,5.61l-24.32 23.08c-1.62,1.54 -4.28,1.54 -5.91,0l-24.31 -23.08c-1.63,-1.54 -1.63,-4.07 -0.01,-5.61z"/>
   </clipPath>
     <mask id="id1">
  <linearGradient id="id2" gradientUnits="userSpaceOnUse" x1="16.56" y1="46.08" x2="30.87" y2="23.02">
   <stop offset="0" style="stop-opacity:1; stop-color:white"/>
   <stop offset="1" style="stop-opacity:0; stop-color:white"/>
  </linearGradient>
      <rect style="fill:url(#id2)" x="12.37" y="-16.54" width="55.29" height="52.6"/>
     </mask>
   <clipPath id="id3" style="clip-rule:nonzero">
    <path d="M66.41 18.62l0 0 3.02 0 0 14.34 -3.02 0 0 -14.34zm8.15 3.43l0 0 0 10.91 -3.02 0 0 -14.34 3.67 0 11.7 10.92 0 -10.92 3.02 0 0 14.34 -3.67 0 -11.7 -10.91zm34.23 6.49l0 0c0,0.81 -0.21,1.55 -0.63,2.22 -0.42,0.67 -0.98,1.21 -1.69,1.61 -0.71,0.39 -1.49,0.59 -2.34,0.59l-12.09 0 0 -14.34 11.33 0c0.81,0 1.55,0.19 2.22,0.56 0.67,0.38 1.2,0.89 1.59,1.52 0.4,0.64 0.59,1.34 0.59,2.11 0,0.84 -0.23,1.6 -0.71,2.29 0.53,0.41 0.96,0.91 1.27,1.51 0.31,0.59 0.46,1.24 0.46,1.93zm-13.73 -7.05l0 0 0 2.63 8.31 0c0.38,0 0.71,-0.13 0.98,-0.39 0.27,-0.25 0.4,-0.56 0.4,-0.92 0,-0.37 -0.13,-0.69 -0.4,-0.94 -0.27,-0.26 -0.6,-0.38 -0.98,-0.38l-8.31 0zm0 5.5l0 0 0 3.1 9.07 0c0.45,0 0.84,-0.15 1.16,-0.45 0.32,-0.31 0.48,-0.67 0.48,-1.1 0,-0.43 -0.16,-0.79 -0.48,-1.1 -0.32,-0.3 -0.71,-0.45 -1.16,-0.45l-9.07 0zm15.84 -8.37l0 0 3.02 0 0 14.34 -3.02 0 0 -14.34zm5.13 8.61l0 0 0 -2.87c0,-1.54 0.59,-2.89 1.78,-4.06 1.23,-1.12 2.65,-1.68 4.26,-1.68l5.55 0c1.61,0 3.04,0.56 4.27,1.68 1.18,1.17 1.77,2.52 1.77,4.06l0 2.87c0,1.53 -0.59,2.88 -1.77,4.05 -1.23,1.12 -2.66,1.68 -4.27,1.68l-5.55 0c-1.61,0 -3.03,-0.56 -4.26,-1.68 -1.19,-1.17 -1.78,-2.52 -1.78,-4.05zm3.02 -2.87l0 0 0 2.87c0,0.79 0.3,1.46 0.89,2.02 0.59,0.56 1.3,0.84 2.13,0.84l5.55 0c0.83,0 1.54,-0.28 2.13,-0.84 0.59,-0.56 0.89,-1.23 0.89,-2.02l0 -2.87c0,-0.79 -0.3,-1.47 -0.89,-2.03 -0.59,-0.56 -1.3,-0.84 -2.13,-0.84l-5.55 0c-0.83,0 -1.54,0.28 -2.13,0.84 -0.59,0.56 -0.89,1.24 -0.89,2.03zm18.28 1.78l0 0c-0.49,-0.4 -0.87,-0.88 -1.15,-1.45 -0.27,-0.56 -0.41,-1.15 -0.41,-1.77 0,-0.79 0.21,-1.51 0.62,-2.16 0.4,-0.65 0.95,-1.17 1.64,-1.56 0.68,-0.39 1.44,-0.58 2.27,-0.58l12.59 0 0 2.87 -12.59 0c-0.41,0 -0.77,0.14 -1.06,0.42 -0.3,0.28 -0.45,0.61 -0.45,1.01 0,0.39 0.17,0.73 0.49,1.03 0.25,0.19 0.58,0.31 0.97,0.35 0.4,0.05 0.84,0.07 1.32,0.07 0.08,0 0.17,0 0.25,0l0.01 0c1.19,0.02 2.37,0.02 3.55,0.01l0.35 0c0.58,-0.01 1.15,-0.02 1.72,-0.03 0.2,0 0.4,0 0.6,-0.01 0.47,-0.01 0.97,0.01 1.5,0.06 0.52,0.05 1.04,0.2 1.57,0.43 1.3,0.64 2.1,1.64 2.4,3.02 0.13,0.65 0.11,1.29 -0.06,1.91 -0.18,0.67 -0.52,1.26 -1,1.78 -0.44,0.45 -0.95,0.8 -1.52,1.05 -0.58,0.25 -1.19,0.37 -1.82,0.37l-12.84 0 0 -2.87 12.84 0c0.41,0 0.77,-0.15 1.09,-0.47 0.32,-0.34 0.44,-0.75 0.35,-1.23 -0.1,-0.46 -0.36,-0.78 -0.77,-0.98 -0.45,-0.18 -1.02,-0.24 -1.68,-0.2 -0.2,0 -0.4,0.01 -0.59,0.01 -0.58,0.01 -1.17,0.02 -1.77,0.03l-0.35 0c-1.2,0.02 -2.41,0.01 -3.63,-0.01 -0.08,0 -0.15,0 -0.23,0 0,0 0,0 0,0 -0.66,0.01 -1.35,-0.04 -2.09,-0.16 -0.73,-0.11 -1.44,-0.43 -2.12,-0.94z"/>
   </clipPath>
     <mask id="id4">
  <linearGradient id="id5" gradientUnits="userSpaceOnUse" x1="58.16" y1="38.65" x2="74.41" y2="12.49">
   <stop offset="0" style="stop-opacity:1; stop-color:white"/>
   <stop offset="1" style="stop-opacity:0; stop-color:white"/>
  </linearGradient>
      <rect style="fill:url(#id5)" x="53.58" y="-32.23" width="62.41" height="59.36"/>
     </mask>
     <mask id="id6">
  <linearGradient id="id7" gradientUnits="userSpaceOnUse" x1="181.25" y1="4.22" x2="143.28" y2="36.89">
   <stop offset="0" style="stop-opacity:1; stop-color:white"/>
   <stop offset="0.258824" style="stop-opacity:0.501961; stop-color:white"/>
   <stop offset="1" style="stop-opacity:0; stop-color:white"/>
  </linearGradient>
      <rect style="fill:url(#id7)" x="101.49" y="21.67" width="62.41" height="59.37"/>
     </mask>
     <mask id="id8">
  <linearGradient id="id9" gradientUnits="userSpaceOnUse" x1="172.64" y1="38.65" x2="188.88" y2="12.49">
   <stop offset="0" style="stop-opacity:1; stop-color:white"/>
   <stop offset="1" style="stop-opacity:0; stop-color:white"/>
  </linearGradient>
      <rect style="fill:url(#id9)" x="168.05" y="-32.23" width="62.42" height="59.36"/>
     </mask>
    <clipPath id="id10" style="clip-rule:nonzero">
     <path d="M155.82 18.62l0 0 3.02 0 0 11.47 13.1 0 0 2.87 -16.12 0 0 -14.34zm23.02 11.96l0 0 -1.36 2.38 -3.43 0 8.14 -14.34 3.16 0 8.14 14.34 -3.44 0 -1.35 -2.38 -9.86 0zm4.93 -8.69l0 0 -3.31 5.81 6.61 0 -3.3 -5.81zm28.58 6.65l0 0c0,0.81 -0.21,1.55 -0.63,2.22 -0.42,0.67 -0.98,1.21 -1.69,1.61 -0.71,0.39 -1.49,0.59 -2.34,0.59l-12.09 0 0 -14.34 11.33 0c0.81,0 1.55,0.19 2.22,0.56 0.67,0.38 1.2,0.89 1.59,1.52 0.4,0.64 0.59,1.34 0.59,2.11 0,0.84 -0.24,1.6 -0.71,2.29 0.53,0.41 0.95,0.91 1.26,1.51 0.31,0.59 0.47,1.24 0.47,1.93zm-13.73 -7.05l0 0 0 2.63 8.31 0c0.38,0 0.7,-0.13 0.98,-0.39 0.27,-0.25 0.4,-0.56 0.4,-0.92 0,-0.37 -0.13,-0.69 -0.4,-0.94 -0.28,-0.26 -0.6,-0.38 -0.98,-0.38l-8.31 0zm0 5.5l0 0 0 3.1 9.07 0c0.45,0 0.83,-0.15 1.16,-0.45 0.32,-0.31 0.48,-0.67 0.48,-1.1 0,-0.43 -0.16,-0.79 -0.48,-1.1 -0.33,-0.3 -0.71,-0.45 -1.16,-0.45l-9.07 0z"/>
    </clipPath>
      <mask id="id11">
  <linearGradient id="id12" gradientUnits="userSpaceOnUse" x1="58.16" y1="38.65" x2="74.41" y2="12.49">
   <stop offset="0" style="stop-opacity:1; stop-color:white"/>
   <stop offset="1" style="stop-opacity:0; stop-color:white"/>
  </linearGradient>
       <rect style="fill:url(#id12)" x="53.58" y="-32.23" width="62.41" height="59.36"/>
      </mask>
      <mask id="id13">
  <linearGradient id="id14" gradientUnits="userSpaceOnUse" x1="181.25" y1="4.22" x2="143.28" y2="36.89">
   <stop offset="0" style="stop-opacity:1; stop-color:white"/>
   <stop offset="0.258824" style="stop-opacity:0.501961; stop-color:white"/>
   <stop offset="1" style="stop-opacity:0; stop-color:white"/>
  </linearGradient>
       <rect style="fill:url(#id14)" x="101.49" y="21.67" width="62.41" height="59.37"/>
      </mask>
      <mask id="id15">
  <linearGradient id="id16" gradientUnits="userSpaceOnUse" x1="172.64" y1="38.65" x2="188.88" y2="12.49">
   <stop offset="0" style="stop-opacity:1; stop-color:white"/>
   <stop offset="1" style="stop-opacity:0; stop-color:white"/>
  </linearGradient>
       <rect style="fill:url(#id16)" x="168.05" y="-32.23" width="62.42" height="59.36"/>
      </mask>
 </defs>
 <g id="Capa_x0020_1">
  <metadata id="CorelCorpID_0Corel-Layer"/>
  <path class="fil0" d="M2.65 26.04l24.32 -23.08c1.63,-1.54 4.29,-1.54 5.91,0l24.32 23.08c1.62,1.54 1.62,4.07 0,5.61l-24.32 23.08c-1.62,1.54 -4.28,1.54 -5.91,0l-24.31 -23.08c-1.63,-1.54 -1.63,-4.07 -0.01,-5.61z"/>
  <g style="clip-path:url(#id0)">
   <g id="_3113498813648">
    <path id="1" class="fil1" style="mask:url(#id1)" d="M40.02 -15.36c14.61,0 26.46,11.25 26.46,25.12 0,13.88 -11.85,25.12 -26.46,25.12 -14.62,0 -26.47,-11.24 -26.47,-25.12 0,-13.87 11.85,-25.12 26.47,-25.12z"/>
    <path class="fil2" d="M41.54 28.85l0 29.19 -23.87 0 0 -29.19 -1.59 0c-0.45,0 -0.82,-0.36 -0.82,-0.78l0 -2.59c0,-0.43 0.37,-0.78 0.82,-0.78l27.69 0c0.45,0 0.82,0.35 0.82,0.78l0 2.59c0,0.42 -0.37,0.78 -0.82,0.78l-2.23 0z"/>
   </g>
  </g>
  <path class="fil3 str0" d="M2.65 26.04l24.32 -23.08c1.63,-1.54 4.29,-1.54 5.91,0l24.32 23.08c1.62,1.54 1.62,4.07 0,5.61l-24.32 23.08c-1.62,1.54 -4.28,1.54 -5.91,0l-24.31 -23.08c-1.63,-1.54 -1.63,-4.07 -0.01,-5.61z"/>
  <rect class="fil0" x="21.68" y="31.26" width="8.25" height="1.87" rx="0.76" ry="0.63"/>
  <rect class="fil0" x="21.68" y="36.22" width="8.25" height="1.87" rx="0.76" ry="0.63"/>
  <rect class="fil0" x="21.68" y="41.19" width="8.25" height="1.87" rx="0.76" ry="0.63"/>
  <rect class="fil0" x="21.68" y="46.15" width="8.25" height="1.87" rx="0.76" ry="0.63"/>
  <path class="fil4" d="M70.04 43.98l4.45 0 0 -0.91 -3.28 0 0 -4.91 -1.17 0 0 5.82zm11.68 0l1.22 0 -2.83 -5.82 -1.15 0 -2.82 5.82 1.2 0 0.62 -1.35 3.14 0 0.62 1.35zm-3.37 -2.19l1.18 -2.55 1.18 2.55 -2.36 0zm11.4 -0.84c0.49,-0.24 0.81,-0.68 0.81,-1.28 0,-0.92 -0.81,-1.51 -2.31,-1.51l-2.94 0 0 5.82 3.12 0c1.61,0 2.45,-0.58 2.45,-1.58 0,-0.76 -0.45,-1.25 -1.13,-1.45zm-1.63 -1.94c0.81,0 1.27,0.26 1.27,0.8 0,0.54 -0.46,0.8 -1.27,0.8l-1.65 0 0 -1.6 1.65 0zm0.24 4.12l-1.89 0 0 -1.68 1.89 0c0.87,0 1.35,0.26 1.35,0.84 0,0.59 -0.48,0.84 -1.35,0.84zm8.27 0.93c1.94,0 3.38,-1.26 3.38,-2.99 0,-1.73 -1.44,-2.99 -3.38,-2.99 -1.95,0 -3.38,1.27 -3.38,2.99 0,1.72 1.43,2.99 3.38,2.99zm0 -0.94c-1.27,0 -2.21,-0.86 -2.21,-2.05 0,-1.19 0.94,-2.05 2.21,-2.05 1.26,0 2.2,0.86 2.2,2.05 0,1.19 -0.94,2.05 -2.2,2.05zm11.54 0.86l-1.44 -1.91c0.85,-0.31 1.33,-0.96 1.33,-1.84 0,-1.29 -1.02,-2.07 -2.67,-2.07l-2.58 0 0 5.82 1.17 0 0 -1.69 1.41 0c0.09,0 0.17,0 0.25,-0.01l1.28 1.7 1.25 0zm-1.28 -3.75c0,0.73 -0.53,1.16 -1.55,1.16l-1.36 0 0 -2.32 1.36 0c1.02,0 1.55,0.43 1.55,1.16zm8.74 3.75l1.22 0 -2.83 -5.82 -1.15 0 -2.82 5.82 1.2 0 0.62 -1.35 3.13 0 0.63 1.35zm-3.37 -2.19l1.17 -2.55 1.19 2.55 -2.36 0zm7.91 2.19l1.17 0 0 -4.91 2.08 0 0 -0.91 -5.32 0 0 0.91 2.07 0 0 4.91zm8.54 0.08c1.94,0 3.38,-1.26 3.38,-2.99 0,-1.73 -1.44,-2.99 -3.38,-2.99 -1.95,0 -3.38,1.27 -3.38,2.99 0,1.72 1.43,2.99 3.38,2.99zm0 -0.94c-1.27,0 -2.21,-0.86 -2.21,-2.05 0,-1.19 0.94,-2.05 2.21,-2.05 1.26,0 2.2,0.86 2.2,2.05 0,1.19 -0.94,2.05 -2.2,2.05zm11.54 0.86l-1.44 -1.91c0.85,-0.31 1.33,-0.96 1.33,-1.84 0,-1.29 -1.02,-2.07 -2.67,-2.07l-2.58 0 0 5.82 1.17 0 0 -1.69 1.41 0c0.08,0 0.16,0 0.25,-0.01l1.28 1.7 1.25 0zm-1.28 -3.75c0,0.73 -0.53,1.16 -1.55,1.16l-1.36 0 0 -2.32 1.36 0c1.02,0 1.55,0.43 1.55,1.16zm4.04 3.75l1.17 0 0 -5.82 -1.17 0 0 5.82zm7.36 0.08c1.95,0 3.38,-1.26 3.38,-2.99 0,-1.73 -1.43,-2.99 -3.38,-2.99 -1.94,0 -3.38,1.27 -3.38,2.99 0,1.72 1.44,2.99 3.38,2.99zm0 -0.94c-1.26,0 -2.2,-0.86 -2.2,-2.05 0,-1.19 0.94,-2.05 2.2,-2.05 1.26,0 2.21,0.86 2.21,2.05 0,1.19 -0.95,2.05 -2.21,2.05zm14.04 0.94c1.03,0 1.91,-0.34 2.49,-0.97l-0.76 -0.66c-0.45,0.46 -1.02,0.69 -1.67,0.69 -1.3,0 -2.24,-0.85 -2.24,-2.05 0,-1.2 0.94,-2.05 2.24,-2.05 0.65,0 1.22,0.23 1.67,0.69l0.76 -0.66c-0.58,-0.63 -1.46,-0.97 -2.48,-0.97 -1.93,0 -3.36,1.25 -3.36,2.99 0,1.74 1.43,2.99 3.35,2.99zm5.18 -0.08l4.44 0 0 -0.91 -3.28 0 0 -4.91 -1.16 0 0 5.82zm6.77 -6.29l0.96 0 1.56 -1.15 -1.31 0 -1.21 1.15zm0.16 6.29l1.17 0 0 -5.82 -1.17 0 0 5.82zm8.85 -5.82l0 3.94 -3.46 -3.94 -0.96 0 0 5.82 1.16 0 0 -3.94 3.46 3.94 0.96 0 0 -5.82 -1.16 0zm4.41 5.82l1.17 0 0 -5.82 -1.17 0 0 5.82zm7.33 0.08c1.04,0 1.91,-0.34 2.5,-0.97l-0.76 -0.66c-0.45,0.46 -1.02,0.69 -1.67,0.69 -1.3,0 -2.24,-0.85 -2.24,-2.05 0,-1.2 0.94,-2.05 2.24,-2.05 0.65,0 1.22,0.23 1.67,0.69l0.76 -0.66c-0.59,-0.63 -1.46,-0.97 -2.49,-0.97 -1.92,0 -3.36,1.25 -3.36,2.99 0,1.74 1.44,2.99 3.35,2.99zm7.98 0c1.95,0 3.38,-1.26 3.38,-2.99 0,-1.73 -1.43,-2.99 -3.38,-2.99 -1.94,0 -3.38,1.27 -3.38,2.99 0,1.72 1.44,2.99 3.38,2.99zm0 -0.94c-1.26,0 -2.2,-0.86 -2.2,-2.05 0,-1.19 0.94,-2.05 2.2,-2.05 1.27,0 2.21,0.86 2.21,2.05 0,1.19 -0.94,2.05 -2.21,2.05z"/>
  <path class="fil4" d="M66.41 18.62l0 0 3.02 0 0 14.34 -3.02 0 0 -14.34zm8.15 3.43l0 0 0 10.91 -3.02 0 0 -14.34 3.67 0 11.7 10.92 0 -10.92 3.02 0 0 14.34 -3.67 0 -11.7 -10.91zm34.23 6.49l0 0c0,0.81 -0.21,1.55 -0.63,2.22 -0.42,0.67 -0.98,1.21 -1.69,1.61 -0.71,0.39 -1.49,0.59 -2.34,0.59l-12.09 0 0 -14.34 11.33 0c0.81,0 1.55,0.19 2.22,0.56 0.67,0.38 1.2,0.89 1.59,1.52 0.4,0.64 0.59,1.34 0.59,2.11 0,0.84 -0.23,1.6 -0.71,2.29 0.53,0.41 0.96,0.91 1.27,1.51 0.31,0.59 0.46,1.24 0.46,1.93zm-13.73 -7.05l0 0 0 2.63 8.31 0c0.38,0 0.71,-0.13 0.98,-0.39 0.27,-0.25 0.4,-0.56 0.4,-0.92 0,-0.37 -0.13,-0.69 -0.4,-0.94 -0.27,-0.26 -0.6,-0.38 -0.98,-0.38l-8.31 0zm0 5.5l0 0 0 3.1 9.07 0c0.45,0 0.84,-0.15 1.16,-0.45 0.32,-0.31 0.48,-0.67 0.48,-1.1 0,-0.43 -0.16,-0.79 -0.48,-1.1 -0.32,-0.3 -0.71,-0.45 -1.16,-0.45l-9.07 0zm15.84 -8.37l0 0 3.02 0 0 14.34 -3.02 0 0 -14.34zm5.13 8.61l0 0 0 -2.87c0,-1.54 0.59,-2.89 1.78,-4.06 1.23,-1.12 2.65,-1.68 4.26,-1.68l5.55 0c1.61,0 3.04,0.56 4.27,1.68 1.18,1.17 1.77,2.52 1.77,4.06l0 2.87c0,1.53 -0.59,2.88 -1.77,4.05 -1.23,1.12 -2.66,1.68 -4.27,1.68l-5.55 0c-1.61,0 -3.03,-0.56 -4.26,-1.68 -1.19,-1.17 -1.78,-2.52 -1.78,-4.05zm3.02 -2.87l0 0 0 2.87c0,0.79 0.3,1.46 0.89,2.02 0.59,0.56 1.3,0.84 2.13,0.84l5.55 0c0.83,0 1.54,-0.28 2.13,-0.84 0.59,-0.56 0.89,-1.23 0.89,-2.02l0 -2.87c0,-0.79 -0.3,-1.47 -0.89,-2.03 -0.59,-0.56 -1.3,-0.84 -2.13,-0.84l-5.55 0c-0.83,0 -1.54,0.28 -2.13,0.84 -0.59,0.56 -0.89,1.24 -0.89,2.03zm18.28 1.78l0 0c-0.49,-0.4 -0.87,-0.88 -1.15,-1.45 -0.27,-0.56 -0.41,-1.15 -0.41,-1.77 0,-0.79 0.21,-1.51 0.62,-2.16 0.4,-0.65 0.95,-1.17 1.64,-1.56 0.68,-0.39 1.44,-0.58 2.27,-0.58l12.59 0 0 2.87 -12.59 0c-0.41,0 -0.77,0.14 -1.06,0.42 -0.3,0.28 -0.45,0.61 -0.45,1.01 0,0.39 0.17,0.73 0.49,1.03 0.25,0.19 0.58,0.31 0.97,0.35 0.4,0.05 0.84,0.07 1.32,0.07 0.08,0 0.17,0 0.25,0l0.01 0c1.19,0.02 2.37,0.02 3.55,0.01l0.35 0c0.58,-0.01 1.15,-0.02 1.72,-0.03 0.2,0 0.4,0 0.6,-0.01 0.47,-0.01 0.97,0.01 1.5,0.06 0.52,0.05 1.04,0.2 1.57,0.43 1.3,0.64 2.1,1.64 2.4,3.02 0.13,0.65 0.11,1.29 -0.06,1.91 -0.18,0.67 -0.52,1.26 -1,1.78 -0.44,0.45 -0.95,0.8 -1.52,1.05 -0.58,0.25 -1.19,0.37 -1.82,0.37l-12.84 0 0 -2.87 12.84 0c0.41,0 0.77,-0.15 1.09,-0.47 0.32,-0.34 0.44,-0.75 0.35,-1.23 -0.1,-0.46 -0.36,-0.78 -0.77,-0.98 -0.45,-0.18 -1.02,-0.24 -1.68,-0.2 -0.2,0 -0.4,0.01 -0.59,0.01 -0.58,0.01 -1.17,0.02 -1.77,0.03l-0.35 0c-1.2,0.02 -2.41,0.01 -3.63,-0.01 -0.08,0 -0.15,0 -0.23,0 0,0 0,0 0,0 -0.66,0.01 -1.35,-0.04 -2.09,-0.16 -0.73,-0.11 -1.44,-0.43 -2.12,-0.94z"/>
  <g style="clip-path:url(#id3)">
   <g id="_3077465700688">
    <path id="1" class="fil1" style="mask:url(#id4)" d="M84.78 -31.05c16.59,0 30.03,12.76 30.03,28.5 0,15.74 -13.44,28.5 -30.03,28.5 -16.58,0 -30.02,-12.76 -30.02,-28.5 0,-15.74 13.44,-28.5 30.02,-28.5z"/>
    <path class="fil1" style="mask:url(#id6)" d="M132.69 79.86c-16.58,0 -30.02,-12.76 -30.02,-28.51 0,-15.74 13.44,-28.5 30.02,-28.5 16.59,0 30.03,12.76 30.03,28.5 0,15.75 -13.44,28.51 -30.03,28.51z"/>
    <path class="fil1" style="mask:url(#id8)" d="M199.26 -31.05c16.58,0 30.03,12.76 30.03,28.5 0,15.74 -13.45,28.5 -30.03,28.5 -16.59,0 -30.03,-12.76 -30.03,-28.5 0,-15.74 13.44,-28.5 30.03,-28.5z"/>
   </g>
  </g>
  <path class="fil5" d="M66.41 18.62l0 0 3.02 0 0 14.34 -3.02 0 0 -14.34zm8.15 3.43l0 0 0 10.91 -3.02 0 0 -14.34 3.67 0 11.7 10.92 0 -10.92 3.02 0 0 14.34 -3.67 0 -11.7 -10.91zm34.23 6.49l0 0c0,0.81 -0.21,1.55 -0.63,2.22 -0.42,0.67 -0.98,1.21 -1.69,1.61 -0.71,0.39 -1.49,0.59 -2.34,0.59l-12.09 0 0 -14.34 11.33 0c0.81,0 1.55,0.19 2.22,0.56 0.67,0.38 1.2,0.89 1.59,1.52 0.4,0.64 0.59,1.34 0.59,2.11 0,0.84 -0.23,1.6 -0.71,2.29 0.53,0.41 0.96,0.91 1.27,1.51 0.31,0.59 0.46,1.24 0.46,1.93zm-13.73 -7.05l0 0 0 2.63 8.31 0c0.38,0 0.71,-0.13 0.98,-0.39 0.27,-0.25 0.4,-0.56 0.4,-0.92 0,-0.37 -0.13,-0.69 -0.4,-0.94 -0.27,-0.26 -0.6,-0.38 -0.98,-0.38l-8.31 0zm0 5.5l0 0 0 3.1 9.07 0c0.45,0 0.84,-0.15 1.16,-0.45 0.32,-0.31 0.48,-0.67 0.48,-1.1 0,-0.43 -0.16,-0.79 -0.48,-1.1 -0.32,-0.3 -0.71,-0.45 -1.16,-0.45l-9.07 0zm15.84 -8.37l0 0 3.02 0 0 14.34 -3.02 0 0 -14.34zm5.13 8.61l0 0 0 -2.87c0,-1.54 0.59,-2.89 1.78,-4.06 1.23,-1.12 2.65,-1.68 4.26,-1.68l5.55 0c1.61,0 3.04,0.56 4.27,1.68 1.18,1.17 1.77,2.52 1.77,4.06l0 2.87c0,1.53 -0.59,2.88 -1.77,4.05 -1.23,1.12 -2.66,1.68 -4.27,1.68l-5.55 0c-1.61,0 -3.03,-0.56 -4.26,-1.68 -1.19,-1.17 -1.78,-2.52 -1.78,-4.05zm3.02 -2.87l0 0 0 2.87c0,0.79 0.3,1.46 0.89,2.02 0.59,0.56 1.3,0.84 2.13,0.84l5.55 0c0.83,0 1.54,-0.28 2.13,-0.84 0.59,-0.56 0.89,-1.23 0.89,-2.02l0 -2.87c0,-0.79 -0.3,-1.47 -0.89,-2.03 -0.59,-0.56 -1.3,-0.84 -2.13,-0.84l-5.55 0c-0.83,0 -1.54,0.28 -2.13,0.84 -0.59,0.56 -0.89,1.24 -0.89,2.03zm18.28 1.78l0 0c-0.49,-0.4 -0.87,-0.88 -1.15,-1.45 -0.27,-0.56 -0.41,-1.15 -0.41,-1.77 0,-0.79 0.21,-1.51 0.62,-2.16 0.4,-0.65 0.95,-1.17 1.64,-1.56 0.68,-0.39 1.44,-0.58 2.27,-0.58l12.59 0 0 2.87 -12.59 0c-0.41,0 -0.77,0.14 -1.06,0.42 -0.3,0.28 -0.45,0.61 -0.45,1.01 0,0.39 0.17,0.73 0.49,1.03 0.25,0.19 0.58,0.31 0.97,0.35 0.4,0.05 0.84,0.07 1.32,0.07 0.08,0 0.17,0 0.25,0l0.01 0c1.19,0.02 2.37,0.02 3.55,0.01l0.35 0c0.58,-0.01 1.15,-0.02 1.72,-0.03 0.2,0 0.4,0 0.6,-0.01 0.47,-0.01 0.97,0.01 1.5,0.06 0.52,0.05 1.04,0.2 1.57,0.43 1.3,0.64 2.1,1.64 2.4,3.02 0.13,0.65 0.11,1.29 -0.06,1.91 -0.18,0.67 -0.52,1.26 -1,1.78 -0.44,0.45 -0.95,0.8 -1.52,1.05 -0.58,0.25 -1.19,0.37 -1.82,0.37l-12.84 0 0 -2.87 12.84 0c0.41,0 0.77,-0.15 1.09,-0.47 0.32,-0.34 0.44,-0.75 0.35,-1.23 -0.1,-0.46 -0.36,-0.78 -0.77,-0.98 -0.45,-0.18 -1.02,-0.24 -1.68,-0.2 -0.2,0 -0.4,0.01 -0.59,0.01 -0.58,0.01 -1.17,0.02 -1.77,0.03l-0.35 0c-1.2,0.02 -2.41,0.01 -3.63,-0.01 -0.08,0 -0.15,0 -0.23,0 0,0 0,0 0,0 -0.66,0.01 -1.35,-0.04 -2.09,-0.16 -0.73,-0.11 -1.44,-0.43 -2.12,-0.94z"/>
  <g id="_3077465710224">
   <path class="fil4" d="M155.82 18.62l0 0 3.02 0 0 11.47 13.1 0 0 2.87 -16.12 0 0 -14.34zm23.02 11.96l0 0 -1.36 2.38 -3.43 0 8.14 -14.34 3.16 0 8.14 14.34 -3.44 0 -1.35 -2.38 -9.86 0zm4.93 -8.69l0 0 -3.31 5.81 6.61 0 -3.3 -5.81zm28.58 6.65l0 0c0,0.81 -0.21,1.55 -0.63,2.22 -0.42,0.67 -0.98,1.21 -1.69,1.61 -0.71,0.39 -1.49,0.59 -2.34,0.59l-12.09 0 0 -14.34 11.33 0c0.81,0 1.55,0.19 2.22,0.56 0.67,0.38 1.2,0.89 1.59,1.52 0.4,0.64 0.59,1.34 0.59,2.11 0,0.84 -0.24,1.6 -0.71,2.29 0.53,0.41 0.95,0.91 1.26,1.51 0.31,0.59 0.47,1.24 0.47,1.93zm-13.73 -7.05l0 0 0 2.63 8.31 0c0.38,0 0.7,-0.13 0.98,-0.39 0.27,-0.25 0.4,-0.56 0.4,-0.92 0,-0.37 -0.13,-0.69 -0.4,-0.94 -0.28,-0.26 -0.6,-0.38 -0.98,-0.38l-8.31 0zm0 5.5l0 0 0 3.1 9.07 0c0.45,0 0.83,-0.15 1.16,-0.45 0.32,-0.31 0.48,-0.67 0.48,-1.1 0,-0.43 -0.16,-0.79 -0.48,-1.1 -0.33,-0.3 -0.71,-0.45 -1.16,-0.45l-9.07 0z"/>
   <g style="clip-path:url(#id10)">
    <g>
     <path id="1" class="fil1" style="mask:url(#id11)" d="M84.78 -31.05c16.59,0 30.03,12.76 30.03,28.5 0,15.74 -13.44,28.5 -30.03,28.5 -16.58,0 -30.02,-12.76 -30.02,-28.5 0,-15.74 13.44,-28.5 30.02,-28.5z"/>
     <path class="fil1" style="mask:url(#id13)" d="M132.69 79.86c-16.58,0 -30.02,-12.76 -30.02,-28.51 0,-15.74 13.44,-28.5 30.02,-28.5 16.59,0 30.03,12.76 30.03,28.5 0,15.75 -13.44,28.51 -30.03,28.51z"/>
     <path class="fil1" style="mask:url(#id15)" d="M199.26 -31.05c16.58,0 30.03,12.76 30.03,28.5 0,15.74 -13.45,28.5 -30.03,28.5 -16.59,0 -30.03,-12.76 -30.03,-28.5 0,-15.74 13.44,-28.5 30.03,-28.5z"/>
    </g>
   </g>
   <path class="fil5" d="M155.82 18.62l0 0 3.02 0 0 11.47 13.1 0 0 2.87 -16.12 0 0 -14.34zm23.02 11.96l0 0 -1.36 2.38 -3.43 0 8.14 -14.34 3.16 0 8.14 14.34 -3.44 0 -1.35 -2.38 -9.86 0zm4.93 -8.69l0 0 -3.31 5.81 6.61 0 -3.3 -5.81zm28.58 6.65l0 0c0,0.81 -0.21,1.55 -0.63,2.22 -0.42,0.67 -0.98,1.21 -1.69,1.61 -0.71,0.39 -1.49,0.59 -2.34,0.59l-12.09 0 0 -14.34 11.33 0c0.81,0 1.55,0.19 2.22,0.56 0.67,0.38 1.2,0.89 1.59,1.52 0.4,0.64 0.59,1.34 0.59,2.11 0,0.84 -0.24,1.6 -0.71,2.29 0.53,0.41 0.95,0.91 1.26,1.51 0.31,0.59 0.47,1.24 0.47,1.93zm-13.73 -7.05l0 0 0 2.63 8.31 0c0.38,0 0.7,-0.13 0.98,-0.39 0.27,-0.25 0.4,-0.56 0.4,-0.92 0,-0.37 -0.13,-0.69 -0.4,-0.94 -0.28,-0.26 -0.6,-0.38 -0.98,-0.38l-8.31 0zm0 5.5l0 0 0 3.1 9.07 0c0.45,0 0.83,-0.15 1.16,-0.45 0.32,-0.31 0.48,-0.67 0.48,-1.1 0,-0.43 -0.16,-0.79 -0.48,-1.1 -0.33,-0.3 -0.71,-0.45 -1.16,-0.45l-9.07 0z"/>
   <rect class="fil2" x="152.67" y="18.62" width="4.24" height="2.87"/>
  </g>
 </g>
</svg>
